<svg version="1.1" id="Layer_1" xmlns="http://www.w3.org/2000/svg" xmlns:xlink="http://www.w3.org/1999/xlink" x="0px" y="0px"
	 width="100%" viewBox="0 0 626 626" enable-background="new 0 0 626 626" xml:space="preserve">
<path fill="#472613" opacity="1.000000" stroke="none" 
	d="
M279.000000,0.999999 
	C302.020905,1.000000 325.041779,1.000000 348.595062,1.392570 
	C354.712372,2.839849 360.271820,4.061159 365.886566,4.921263 
	C394.629059,9.324243 421.949463,18.273998 448.189178,30.631521 
	C472.634766,42.144089 494.989990,56.879307 515.808167,74.118767 
	C532.901001,88.273331 548.113770,104.193039 561.694214,121.626572 
	C578.074036,142.653763 591.547119,165.489502 602.024597,190.048630 
	C612.810913,215.331711 620.495483,241.467026 624.105591,268.772278 
	C624.565125,272.248322 626.011047,275.593964 627.000000,279.000000 
	C627.000000,302.020905 627.000000,325.041779 626.607422,348.595032 
	C625.160095,354.712280 623.938660,360.271667 623.078613,365.886444 
	C618.675781,394.628845 609.726379,421.949249 597.368591,448.188812 
	C585.855774,472.634155 571.120850,494.989471 553.881409,515.807617 
	C539.726990,532.900330 523.807678,548.113342 506.373932,561.693237 
	C485.346375,578.072571 462.511322,591.546631 437.951965,602.023804 
	C412.668457,612.809937 386.532837,620.494324 359.227448,624.105042 
	C355.751434,624.564636 352.405945,626.010864 349.000000,627.000000 
	C325.979095,627.000000 302.958221,627.000000 279.405151,626.607361 
	C273.287933,625.159851 267.728149,623.940735 262.113647,623.077698 
	C233.207520,618.634460 205.744064,609.616760 179.366028,597.141785 
	C155.086945,585.659546 132.886154,571.002625 112.192963,553.880188 
	C95.094498,539.732239 79.886581,523.807617 66.306725,506.373901 
	C49.927410,485.346222 36.452751,462.511505 25.975876,437.951782 
	C15.190204,412.668243 7.504541,386.533203 3.894994,359.227631 
	C3.435498,355.751617 1.989154,352.406006 0.999997,349.000000 
	C1.000000,325.979095 1.000000,302.958221 1.392561,279.404907 
	C2.840014,273.287567 4.061632,267.728180 4.921774,262.113403 
	C9.324945,233.370819 18.255831,206.041306 30.636923,179.812622 
	C42.168480,155.383636 56.818302,132.975433 74.111298,112.184883 
	C88.302475,95.123497 104.192810,79.885414 121.626709,66.305412 
	C142.654236,49.926167 165.488556,36.450947 190.048645,25.974924 
	C215.332260,15.190284 241.466843,7.503540 268.772308,3.894502 
	C272.248352,3.435065 275.593964,1.988986 279.000000,0.999999 
M207.262802,35.724922 
	C160.520401,53.742290 120.389198,81.444702 88.167160,119.731987 
	C29.105028,189.911575 6.007267,270.823456 20.038616,361.524658 
	C31.130711,433.226044 65.189941,492.810364 120.072693,540.090454 
	C170.063416,583.156067 228.344681,606.779663 294.260895,611.250000 
	C346.711273,614.807190 396.716248,605.229065 443.917999,582.171021 
	C503.072083,553.274292 548.180603,509.558807 578.521057,451.105743 
	C610.236084,390.004456 619.433411,325.239258 606.606567,257.734161 
	C594.387024,193.425522 563.790649,138.847717 515.498535,94.617607 
	C461.212494,44.897808 396.896240,18.936890 323.395935,16.156094 
	C283.677551,14.653396 245.166824,21.335117 207.262802,35.724922 
z"/>
<path fill="#000000" opacity="1.000000" stroke="none" 
	d="
M627.000000,278.531342 
	C626.011047,275.593964 624.565125,272.248322 624.105591,268.772278 
	C620.495483,241.467026 612.810913,215.331711 602.024597,190.048630 
	C591.547119,165.489502 578.074036,142.653763 561.694214,121.626572 
	C548.113770,104.193039 532.901001,88.273331 515.808167,74.118767 
	C494.989990,56.879307 472.634766,42.144089 448.189178,30.631521 
	C421.949463,18.273998 394.629059,9.324243 365.886566,4.921263 
	C360.271820,4.061159 354.712372,2.839849 349.063721,1.392570 
	C441.593719,1.000000 534.187439,1.000000 627.000000,1.000000 
	C627.000000,93.354111 627.000000,185.708405 627.000000,278.531342 
z"/>
<path fill="#000000" opacity="1.000000" stroke="none" 
	d="
M349.468658,627.000000 
	C352.405945,626.010864 355.751434,624.564636 359.227448,624.105042 
	C386.532837,620.494324 412.668457,612.809937 437.951965,602.023804 
	C462.511322,591.546631 485.346375,578.072571 506.373932,561.693237 
	C523.807678,548.113342 539.726990,532.900330 553.881409,515.807617 
	C571.120850,494.989471 585.855774,472.634155 597.368591,448.188812 
	C609.726379,421.949249 618.675781,394.628845 623.078613,365.886444 
	C623.938660,360.271667 625.160095,354.712280 626.607422,349.063660 
	C627.000000,441.593719 627.000000,534.187439 627.000000,627.000000 
	C534.645874,627.000000 442.291595,627.000000 349.468658,627.000000 
z"/>
<path fill="#000000" opacity="1.000000" stroke="none" 
	d="
M0.999997,349.468658 
	C1.989154,352.406006 3.435498,355.751617 3.894994,359.227631 
	C7.504541,386.533203 15.190204,412.668243 25.975876,437.951782 
	C36.452751,462.511505 49.927410,485.346222 66.306725,506.373901 
	C79.886581,523.807617 95.094498,539.732239 112.192963,553.880188 
	C132.886154,571.002625 155.086945,585.659546 179.366028,597.141785 
	C205.744064,609.616760 233.207520,618.634460 262.113647,623.077698 
	C267.728149,623.940735 273.287933,625.159851 278.936462,626.607361 
	C186.406281,627.000000 93.812553,627.000000 1.000000,627.000000 
	C1.000000,534.645874 1.000000,442.291595 0.999997,349.468658 
z"/>
<path fill="#000000" opacity="1.000000" stroke="none" 
	d="
M278.531342,0.999999 
	C275.593964,1.988986 272.248352,3.435065 268.772308,3.894502 
	C241.466843,7.503540 215.332260,15.190284 190.048645,25.974924 
	C165.488556,36.450947 142.654236,49.926167 121.626709,66.305412 
	C104.192810,79.885414 88.302475,95.123497 74.111298,112.184883 
	C56.818302,132.975433 42.168480,155.383636 30.636923,179.812622 
	C18.255831,206.041306 9.324945,233.370819 4.921774,262.113403 
	C4.061632,267.728180 2.840014,273.287567 1.392561,278.936249 
	C1.000000,186.406281 1.000000,93.812553 1.000000,1.000000 
	C93.354111,1.000000 185.708405,1.000000 278.531342,0.999999 
z"/>
<path fill="#F0F5F1" opacity="1.000000" stroke="none" 
	d="
M207.611694,35.554180 
	C245.166824,21.335117 283.677551,14.653396 323.395935,16.156094 
	C396.896240,18.936890 461.212494,44.897808 515.498535,94.617607 
	C563.790649,138.847717 594.387024,193.425522 606.606567,257.734161 
	C619.433411,325.239258 610.236084,390.004456 578.521057,451.105743 
	C548.180603,509.558807 503.072083,553.274292 443.917999,582.171021 
	C396.716248,605.229065 346.711273,614.807190 294.260895,611.250000 
	C228.344681,606.779663 170.063416,583.156067 120.072693,540.090454 
	C65.189941,492.810364 31.130711,433.226044 20.038616,361.524658 
	C6.007267,270.823456 29.105028,189.911575 88.167160,119.731987 
	C120.389198,81.444702 160.520401,53.742290 207.611694,35.554180 
M446.006775,242.518448 
	C445.890900,242.050827 445.775024,241.583206 445.697784,240.336166 
	C444.184174,230.206879 439.120911,222.073944 431.328674,214.359833 
	C431.622833,222.707672 430.740417,229.853622 425.827209,235.868820 
	C423.037537,239.284134 421.164154,239.122726 419.348175,235.136765 
	C418.442596,233.149002 417.844360,231.021255 416.916565,228.423309 
	C414.578735,231.595459 412.828491,233.970352 410.494934,235.890182 
	C407.448792,233.274689 406.828217,230.456726 407.821533,226.266510 
	C413.232544,203.440582 408.612244,182.054626 397.220123,161.956070 
	C394.589813,157.315567 391.109009,153.157135 387.543579,148.102005 
	C384.844910,155.731934 382.547668,162.226929 380.250427,168.721939 
	C374.171021,125.356438 346.133392,100.757065 309.925629,81.917061 
	C309.588989,82.073906 309.252380,82.230751 308.915741,82.387604 
	C309.219391,82.648849 309.523041,82.910095 310.093506,83.787743 
	C326.215210,101.246162 331.019287,121.407852 324.059143,144.124695 
	C319.005402,160.619308 308.730011,173.725891 296.208588,185.247101 
	C290.608215,190.400131 285.063232,195.613342 279.244293,200.578751 
	C278.897339,200.537994 278.586823,200.621643 278.283539,200.109100 
	C277.000610,198.418335 275.889221,196.557281 274.407227,195.064117 
	C263.825958,184.403366 253.811401,173.296707 246.183228,160.246399 
	C245.132095,158.448135 244.043655,156.671661 242.972488,154.885101 
	C242.516678,154.943817 242.060852,155.002533 241.605042,155.061249 
	C241.384537,156.827927 241.042313,158.589310 240.965439,160.362213 
	C240.691666,166.675461 240.855774,173.027542 240.225662,179.301788 
	C238.294113,198.534866 229.422195,215.067734 219.656021,231.268616 
	C207.985870,250.628021 195.920197,269.885345 189.598709,291.825134 
	C186.377167,303.006073 184.598755,314.602844 181.986923,326.843323 
	C180.818192,341.672760 180.344467,356.476715 183.624512,371.975311 
	C192.664017,414.762939 222.257462,435.299469 262.812683,444.494354 
	C256.105011,451.693848 250.987732,459.290070 249.368195,468.835266 
	C247.545486,479.577942 252.729477,488.986511 262.438263,492.345978 
	C265.540985,493.419586 268.253387,493.645996 270.523254,490.774719 
	C272.955017,487.698669 275.181244,484.616028 273.352844,480.377777 
	C271.271515,475.553253 271.895264,472.859100 275.134247,469.728790 
	C275.134247,483.281067 275.134247,497.579742 274.252625,512.031555 
	C257.513947,513.005127 240.710938,513.365234 224.053329,515.111877 
	C204.441666,517.168152 184.930634,520.261780 165.432678,523.272827 
	C160.210953,524.079163 155.195908,526.223877 150.085983,527.754211 
	C150.052979,528.517212 150.019958,529.280273 149.986954,530.043335 
	C153.216293,531.343384 156.340195,533.266541 159.693527,533.833923 
	C173.095123,536.101685 186.512787,538.530334 200.027634,539.812317 
	C219.681854,541.676636 239.410385,542.914062 259.134338,543.845276 
	C281.545013,544.903259 303.984222,545.375000 326.413818,546.003357 
	C333.522369,546.202515 340.639771,546.110413 347.753113,546.110718 
	C361.525177,546.111389 375.297638,546.007202 389.069183,546.083435 
	C413.932281,546.221069 438.402466,542.824036 462.688904,537.901672 
	C466.548126,537.119446 470.282654,535.500183 473.908142,533.892090 
	C475.426453,533.218689 476.510223,531.565491 477.791565,530.357788 
	C476.485748,529.214233 475.346588,527.409119 473.847809,527.031555 
	C461.520325,523.925842 449.126007,521.085388 435.972137,518.045532 
	C431.830963,517.632874 427.689789,517.220154 423.177734,516.770447 
	C431.584045,509.471008 432.884369,500.188416 430.956329,490.153015 
	C429.375092,481.922913 423.823547,476.180420 417.720093,470.142548 
	C414.838928,467.747009 411.957794,465.351501 408.908020,462.235321 
	C405.608704,455.230652 402.309387,448.225952 399.789642,441.057892 
	C406.900787,438.770355 414.160248,436.855286 421.084747,434.098846 
	C429.308990,430.825043 435.921875,425.350525 440.270813,417.399841 
	C441.410309,415.316620 442.678619,413.188477 444.332581,411.522675 
	C450.546326,405.264648 450.616302,397.343079 444.098572,392.820404 
	C452.749939,382.988434 454.840149,370.783356 456.270569,358.407532 
	C458.324493,340.636719 456.112183,323.135956 450.389709,306.396057 
	C445.792145,292.946808 439.323029,280.137421 434.300659,266.665375 
	C442.574036,262.614807 446.122620,255.803329 446.265198,246.377747 
	C446.143768,245.333572 446.022339,244.289413 446.006775,242.518448 
M423.031128,127.278633 
	C421.894287,119.610153 417.596741,114.311234 411.248260,110.228806 
	C409.329254,117.211632 407.520874,123.406776 405.976501,129.667053 
	C405.560883,131.351822 405.947815,133.234573 405.914062,135.760101 
	C406.496399,136.906860 406.939606,138.154266 407.684174,139.183701 
	C411.843475,144.934341 417.615479,144.798767 420.825836,138.412933 
	C422.350433,135.380249 422.287567,131.549469 423.031128,127.278633 
M295.126801,115.038239 
	C292.288727,106.382263 287.866669,98.842339 281.439087,93.882210 
	C278.092010,99.838272 274.824677,105.257111 271.954651,110.878792 
	C269.443054,115.798454 267.378082,120.946114 264.924011,126.797096 
	C264.856476,129.449677 264.590179,132.114975 264.759186,134.752396 
	C265.238220,142.229187 270.882141,149.042404 277.351776,150.203949 
	C285.749756,151.711700 293.156891,147.980225 296.074524,139.977432 
	C299.013977,131.914963 298.633606,123.713821 295.126801,115.038239 
M193.118225,231.060455 
	C191.125198,225.526062 187.800735,221.080963 182.537003,217.139572 
	C182.148132,219.719894 181.912155,221.285675 181.451935,224.339371 
	C170.330673,214.084122 173.143677,201.414352 171.858185,189.587997 
	C167.338181,196.531555 162.842804,203.418671 159.398697,210.796509 
	C154.986221,220.248703 153.108383,230.276947 156.250473,241.465164 
	C158.633835,246.288406 160.345383,251.631912 163.573792,255.800720 
	C167.445404,260.800079 173.125214,263.374390 179.862564,261.805115 
	C192.624222,258.832642 198.841034,244.699692 193.118225,231.060455 
M206.841385,190.373032 
	C206.844528,192.497574 206.374237,194.779190 207.009583,196.693954 
	C207.468307,198.076431 209.290634,199.651810 210.703400,199.873108 
	C211.885468,200.058273 213.812866,198.709091 214.608261,197.508179 
	C216.639526,194.441299 215.200287,184.394531 212.016251,180.487091 
	C210.210876,183.731781 208.578888,186.664825 206.841385,190.373032 
z"/>
<path fill="#472515" opacity="1.000000" stroke="none" 
	d="
M433.684387,267.044128 
	C439.323029,280.137421 445.792145,292.946808 450.389709,306.396057 
	C456.112183,323.135956 458.324493,340.636719 456.270569,358.407532 
	C454.840149,370.783356 452.749939,382.988434 444.098572,392.820404 
	C450.616302,397.343079 450.546326,405.264648 444.332581,411.522675 
	C442.678619,413.188477 441.410309,415.316620 440.270813,417.399841 
	C435.921875,425.350525 429.308990,430.825043 421.084747,434.098846 
	C414.160248,436.855286 406.900787,438.770355 399.104950,441.061401 
	C398.017639,441.002808 397.615021,440.940704 397.179230,440.471863 
	C397.830963,436.712463 393.484863,433.048889 398.174011,429.973267 
	C408.763733,427.248596 417.926208,422.647736 425.568146,415.188599 
	C429.876404,410.983368 430.857910,406.001038 429.776886,400.622742 
	C430.114899,400.840393 430.364471,400.784363 430.614014,400.728302 
	C430.308289,400.629913 430.002533,400.531525 429.519897,400.731262 
	C426.091034,403.374878 422.839111,405.720367 419.232605,408.095398 
	C418.603241,408.460785 418.328491,408.796661 418.114014,409.098389 
	C418.174316,409.064270 418.282166,409.151245 417.880829,409.036987 
	C408.538757,411.607727 399.498260,413.334137 390.219910,410.906189 
	C385.785095,409.745667 381.453735,408.189667 376.999207,406.488007 
	C374.622101,404.280060 372.304688,402.416779 370.023560,400.510101 
	C361.992157,393.797119 358.310913,384.515594 354.679779,374.944763 
	C353.189362,374.280487 352.027466,373.685455 350.411224,373.076996 
	C339.864868,373.054810 329.772583,373.002594 319.681305,373.082916 
	C318.127930,373.095276 316.579437,373.717316 314.906799,374.349762 
	C314.678680,375.678833 314.572479,376.715546 314.111389,377.940674 
	C309.305389,382.541931 311.769104,388.307648 310.560791,393.088867 
	C310.079102,391.223480 309.806213,389.665039 309.450378,387.633057 
	C306.763428,391.329437 304.352020,394.646759 301.651093,398.125946 
	C279.211853,421.151337 241.142349,414.541718 227.900879,385.392120 
	C223.447403,375.588318 223.179230,365.438873 225.470886,354.804871 
	C230.660278,338.571106 241.558868,328.567596 257.493744,323.245178 
	C258.567749,323.076202 259.278076,322.923584 260.272095,322.796936 
	C261.061493,322.599182 261.567169,322.375519 262.533234,322.176880 
	C268.902435,322.519287 274.811218,322.836639 281.001617,323.389038 
	C297.391937,328.630157 307.635468,339.563049 313.016785,356.181610 
	C327.490479,347.376556 341.893860,349.246216 356.347504,355.744049 
	C361.029083,339.926270 370.976288,330.132843 385.462280,324.192535 
	C395.220978,321.122864 404.601227,321.482941 414.298004,324.132019 
	C424.917786,327.951874 432.638275,334.837036 438.929291,344.019409 
	C443.309265,352.417938 445.494934,360.955261 445.633728,370.082031 
	C450.063568,348.434631 448.384979,327.222839 441.137604,306.017090 
	C432.848206,278.721344 417.817230,255.943741 398.442810,235.658142 
	C397.038910,236.699219 396.033386,237.444870 394.792053,237.842407 
	C405.300751,213.849030 401.914581,191.148239 390.075226,167.710083 
	C383.149811,180.707413 374.360626,190.324173 361.389343,195.802704 
	C361.059662,195.175217 360.999207,194.548660 361.236755,193.757141 
	C372.236908,176.477570 371.760010,159.208679 362.076569,141.510208 
	C357.649078,135.152222 353.394348,129.099152 349.007446,122.725021 
	C344.717377,117.679848 340.621857,112.881760 334.112030,109.265739 
	C337.056824,119.108330 336.465820,127.946571 335.297699,137.215912 
	C333.532837,143.446930 331.877594,149.261047 330.001892,155.337570 
	C329.180817,157.064056 328.580231,158.528137 327.716309,160.210419 
	C321.570404,172.012558 313.587860,181.966019 303.634308,190.252014 
	C296.662964,196.055405 288.962738,200.544495 279.493103,200.799240 
	C285.063232,195.613342 290.608215,190.400131 296.208588,185.247101 
	C308.730011,173.725891 319.005402,160.619308 324.059143,144.124695 
	C331.019287,121.407852 326.215210,101.246162 310.133301,83.257469 
	C310.271362,82.567184 310.369568,82.407166 310.467804,82.247154 
	C346.133392,100.757065 374.171021,125.356438 380.250427,168.721939 
	C382.547668,162.226929 384.844910,155.731934 387.543579,148.102005 
	C391.109009,153.157135 394.589813,157.315567 397.220123,161.956070 
	C408.612244,182.054626 413.232544,203.440582 407.821533,226.266510 
	C406.828217,230.456726 407.448792,233.274689 410.937134,236.388916 
	C417.200500,244.285217 423.021729,251.682785 428.940704,259.409607 
	C430.587128,262.173950 432.135742,264.609039 433.684387,267.044128 
M423.676819,392.733826 
	C426.608521,388.271790 429.540222,383.809753 432.872314,378.683289 
	C433.522522,373.330444 435.170654,367.875031 434.633209,362.644226 
	C433.105713,347.777588 422.199982,336.220825 407.752716,332.891693 
	C393.327942,329.567719 378.816223,335.488678 370.588898,348.055023 
	C362.611847,360.239258 363.128052,375.511414 372.087769,388.278992 
	C381.107513,398.756805 392.129211,403.994049 406.949463,401.181519 
	C412.326355,398.464600 417.703247,395.747681 423.676819,392.733826 
M281.320312,334.597870 
	C281.320312,334.597870 281.338776,334.553802 280.742950,334.097412 
	C260.420746,327.335968 239.480530,338.756927 234.868759,359.754608 
	C231.020142,376.198730 240.054855,393.072357 256.567566,399.831177 
	C262.094574,400.505859 267.740814,402.216980 273.118988,401.598175 
	C280.157776,400.788300 287.643402,399.401489 292.296295,391.711273 
	C292.928284,390.748413 293.368622,389.544678 294.224701,388.863464 
	C298.444122,385.506042 299.599426,381.123291 299.038666,375.991943 
	C298.877991,374.521759 299.139038,373.005524 299.680725,372.236481 
	C299.949585,374.682007 300.218475,377.127563 300.605377,380.646729 
	C308.739319,364.400696 301.210663,344.263672 284.439362,335.677368 
	C283.393677,335.332214 282.347992,334.987061 281.320312,334.597870 
M332.648407,359.994232 
	C327.472015,361.704926 322.282837,363.378235 317.123993,365.140259 
	C313.997284,366.208252 313.149963,368.286957 314.794342,371.717621 
	C321.355133,371.717621 327.992859,371.717621 334.630585,371.717621 
	C341.339020,371.717621 348.047455,371.717621 356.361816,371.717621 
	C354.774139,369.012421 353.982361,365.644379 352.202850,364.998779 
	C346.165924,362.808594 339.779694,361.581116 332.648407,359.994232 
M409.295227,431.441986 
	C408.800323,431.796539 408.305450,432.151093 407.539612,432.699768 
	C418.354675,433.184692 433.057068,423.431854 436.851135,412.661621 
	C430.443359,414.056152 428.877319,420.258820 424.487061,422.693115 
	C419.576538,425.415863 414.778107,428.340698 409.295227,431.441986 
M444.783508,400.544678 
	C443.327332,399.782990 441.144562,398.005890 440.541870,398.437134 
	C438.057434,400.214813 435.290131,402.316803 434.089966,404.963196 
	C432.936676,407.506317 435.247192,409.233948 438.136383,408.843811 
	C442.446075,408.261871 444.212646,405.278961 444.783508,400.544678 
z"/>
<path fill="#CCC1C2" opacity="1.000000" stroke="none" 
	d="
M436.751984,518.164490 
	C449.126007,521.085388 461.520325,523.925842 473.847809,527.031555 
	C475.346588,527.409119 476.485748,529.214233 477.791565,530.357788 
	C476.510223,531.565491 475.426453,533.218689 473.908142,533.892090 
	C470.282654,535.500183 466.548126,537.119446 462.688904,537.901672 
	C438.402466,542.824036 413.932281,546.221069 389.069183,546.083435 
	C375.297638,546.007202 361.525177,546.111389 347.753113,546.110718 
	C340.639771,546.110413 333.522369,546.202515 326.413818,546.003357 
	C303.984222,545.375000 281.545013,544.903259 259.134338,543.845276 
	C239.410385,542.914062 219.681854,541.676636 200.027634,539.812317 
	C186.512787,538.530334 173.095123,536.101685 159.693527,533.833923 
	C156.340195,533.266541 153.216293,531.343384 149.986954,530.043335 
	C150.019958,529.280273 150.052979,528.517212 150.085983,527.754211 
	C155.195908,526.223877 160.210953,524.079163 165.432678,523.272827 
	C184.930634,520.261780 204.441666,517.168152 224.053329,515.111877 
	C240.710938,513.365234 257.513947,513.005127 274.653931,511.984619 
	C275.055237,511.937714 274.997009,511.857971 275.113464,512.057861 
	C275.338562,512.564941 275.539490,512.789551 275.911621,513.309814 
	C274.930573,515.123047 273.900787,516.581604 272.803101,517.987183 
	C271.368164,519.824585 268.685730,521.656921 268.740082,523.423767 
	C268.797821,525.300171 271.113800,528.175110 272.996887,528.727234 
	C278.657776,530.387268 284.560577,531.325500 290.424957,532.145203 
	C293.395325,532.560425 294.902985,530.558533 295.131226,527.591003 
	C295.496216,522.845337 295.940491,518.105713 296.360870,513.252502 
	C302.473358,514.092224 308.223633,514.882202 314.151947,515.917725 
	C313.433838,517.073547 312.537750,517.983826 311.267761,518.864929 
	C307.167145,519.441223 302.769897,520.486816 302.788147,524.600220 
	C302.797729,526.756042 306.593689,530.233398 309.189301,530.806702 
	C320.155579,533.229004 331.303253,534.667175 342.474976,531.468872 
	C343.841431,531.077698 345.634338,530.860413 346.836029,531.415161 
	C357.508453,536.341614 368.366302,535.743713 379.459015,533.219116 
	C382.267517,532.579956 385.349426,533.101440 388.304474,533.155945 
	C393.398376,533.250000 398.529388,533.841858 403.575378,533.411133 
	C410.424805,532.826416 417.045197,530.592224 424.168854,531.963684 
	C427.422729,532.590088 431.342255,531.952881 434.421753,530.633179 
	C437.140961,529.467896 439.851746,526.898743 441.067596,524.259094 
	C441.587769,523.129700 438.306122,520.249268 436.751984,518.164490 
z"/>
<path fill="#482413" opacity="1.000000" stroke="none" 
	d="
M313.973938,515.672180 
	C308.223633,514.882202 302.473358,514.092224 296.360870,513.252502 
	C295.940491,518.105713 295.496216,522.845337 295.131226,527.591003 
	C294.902985,530.558533 293.395325,532.560425 290.424957,532.145203 
	C284.560577,531.325500 278.657776,530.387268 272.996887,528.727234 
	C271.113800,528.175110 268.797821,525.300171 268.740082,523.423767 
	C268.685730,521.656921 271.368164,519.824585 272.803101,517.987183 
	C273.900787,516.581604 274.930573,515.123047 275.925262,513.049438 
	C275.572296,512.226562 275.284668,512.042297 274.997009,511.857971 
	C274.997009,511.857971 275.055237,511.937714 275.094727,511.908051 
	C275.134247,497.579742 275.134247,483.281067 275.134247,469.728790 
	C271.895264,472.859100 271.271515,475.553253 273.352844,480.377777 
	C275.181244,484.616028 272.955017,487.698669 270.523254,490.774719 
	C268.253387,493.645996 265.540985,493.419586 262.438263,492.345978 
	C252.729477,488.986511 247.545486,479.577942 249.368195,468.835266 
	C250.987732,459.290070 256.105011,451.693848 262.812683,444.494354 
	C222.257462,435.299469 192.664017,414.762939 183.942383,371.284607 
	C184.478928,368.330963 184.980927,366.053833 184.868042,363.807587 
	C184.331268,353.126007 183.649918,342.451385 182.961594,331.778015 
	C182.837067,329.846863 182.439529,327.933319 182.168015,326.011627 
	C184.598755,314.602844 186.377167,303.006073 189.598709,291.825134 
	C195.920197,269.885345 207.985870,250.628021 219.656021,231.268616 
	C229.422195,215.067734 238.294113,198.534866 240.225662,179.301788 
	C240.855774,173.027542 240.691666,166.675461 240.965439,160.362213 
	C241.042313,158.589310 241.384537,156.827927 241.605042,155.061249 
	C242.060852,155.002533 242.516678,154.943817 242.972488,154.885101 
	C244.043655,156.671661 245.132095,158.448135 246.183228,160.246399 
	C253.811401,173.296707 263.825958,184.403366 274.407227,195.064117 
	C275.889221,196.557281 277.000610,198.418335 277.899231,200.513474 
	C267.196747,198.929443 259.434845,192.644363 251.904495,185.463165 
	C248.819336,183.231644 249.556137,186.090073 249.086594,187.278992 
	C244.106857,199.888077 239.566589,212.692535 234.038620,225.055664 
	C230.337158,233.333847 225.241913,240.988800 220.503082,249.124329 
	C211.219437,264.038818 202.796921,279.038055 197.622559,296.025024 
	C191.859207,313.991608 189.302765,332.100403 190.032242,350.560883 
	C190.307617,357.530121 191.900070,364.447327 192.822357,371.648499 
	C192.834290,372.253876 192.915970,372.598999 192.969940,373.329102 
	C193.595581,375.313934 194.248962,376.913788 194.866516,378.885406 
	C194.958633,380.077179 194.931625,380.960510 195.237152,381.707977 
	C203.073654,400.881195 215.481461,416.007385 234.377625,425.168732 
	C250.398438,432.936005 267.441681,437.375702 285.296082,440.298462 
	C298.025543,441.398621 310.444824,442.235260 322.898895,443.472351 
	C322.265991,446.525330 321.598328,449.177887 320.489166,451.876343 
	C310.443909,451.575684 300.834167,451.339630 291.239563,450.822968 
	C287.856476,450.640747 286.057587,451.237213 285.807556,455.148438 
	C284.974213,468.184967 283.648895,481.192413 282.988556,494.235138 
	C282.885529,496.269745 284.866180,498.896942 286.615387,500.395782 
	C288.236786,501.785217 290.838257,502.030884 293.398193,502.884949 
	C298.727753,503.745270 303.667297,504.500763 308.801636,505.532928 
	C311.036926,508.527435 313.077423,511.245331 314.881042,514.097778 
	C314.420746,514.712341 314.197327,515.192261 313.973938,515.672180 
M261.249603,475.702087 
	C262.336060,480.061523 264.687927,482.985474 269.203125,483.742523 
	C267.674591,480.538666 266.359283,477.781708 265.711670,474.864105 
	C266.234528,474.476868 266.976532,474.204041 267.247314,473.685272 
	C271.125275,466.255493 274.976624,458.810883 278.701599,451.303925 
	C279.010468,450.681458 278.458527,448.859344 278.141449,448.816498 
	C274.370422,448.307068 269.205719,446.330658 267.061401,448.050018 
	C262.778778,451.483978 260.147980,456.977905 256.299500,462.157349 
	C250.939972,473.357361 253.795563,484.647461 264.284607,487.907074 
	C258.192749,481.316132 255.070374,474.908417 258.615509,466.640350 
	C259.772644,464.889130 260.869690,464.050751 261.098846,467.066956 
	C261.298889,469.700195 261.251648,472.352264 261.249603,475.702087 
M277.842743,522.763123 
	C276.420715,522.621948 274.998657,522.480774 273.576630,522.339600 
	C273.439026,523.000610 273.301392,523.661621 273.163788,524.322632 
	C277.475677,525.547058 281.764923,526.860291 286.106445,527.968628 
	C289.813263,528.914978 291.286713,527.289490 291.037842,523.518372 
	C290.841156,520.538696 291.276093,517.511292 290.996674,514.545959 
	C290.884583,513.356689 289.863495,511.782806 288.815338,511.248230 
	C286.504089,510.069489 283.912811,509.439819 280.353455,508.213074 
	C281.135864,513.930725 281.808105,518.843506 282.496155,523.871704 
	C281.132599,523.547363 279.860504,523.244751 277.842743,522.763123 
z"/>
<path fill="#F4AA0C" opacity="1.000000" stroke="none" 
	d="
M252.031433,185.756683 
	C259.434845,192.644363 267.196747,198.929443 277.913818,200.873749 
	C278.586823,200.621643 278.897339,200.537994 279.368713,200.688995 
	C288.962738,200.544495 296.662964,196.055405 303.634308,190.252014 
	C313.587860,181.966019 321.570404,172.012558 327.900208,160.511200 
	C331.317505,161.875671 335.863586,165.053558 336.989868,164.117340 
	C342.406769,159.614563 348.424011,161.487732 354.201843,161.014938 
	C359.169678,160.608398 363.594299,161.138992 364.799194,167.289886 
	C364.934418,167.980301 366.237366,168.442001 367.000305,169.448990 
	C366.453125,173.089752 366.126953,176.349777 365.304352,179.479309 
	C364.026672,184.340240 362.411072,189.112335 360.938721,193.922089 
	C360.999207,194.548660 361.059662,195.175217 361.543274,196.033112 
	C355.352173,196.510193 348.672363,196.262558 342.140747,197.130341 
	C334.500488,198.145401 326.994385,200.157684 319.419434,201.684357 
	C316.835205,202.205185 314.204895,202.497345 311.620789,203.018723 
	C309.080109,203.531326 306.525848,204.056671 304.056458,204.828735 
	C293.493042,208.131454 283.094116,212.081543 272.367859,214.700790 
	C264.817810,216.544434 256.657745,212.823990 248.980774,215.579712 
	C249.999313,205.360947 251.015366,195.558823 252.031433,185.756683 
z"/>
<path fill="#E0500E" opacity="1.000000" stroke="none" 
	d="
M436.362061,518.104980 
	C438.306122,520.249268 441.587769,523.129700 441.067596,524.259094 
	C439.851746,526.898743 437.140961,529.467896 434.421753,530.633179 
	C431.342255,531.952881 427.422729,532.590088 424.168854,531.963684 
	C417.045197,530.592224 410.424805,532.826416 403.575378,533.411133 
	C398.529388,533.841858 393.398376,533.250000 388.304474,533.155945 
	C385.349426,533.101440 382.267517,532.579956 379.459015,533.219116 
	C368.366302,535.743713 357.508453,536.341614 346.836029,531.415161 
	C345.634338,530.860413 343.841431,531.077698 342.474976,531.468872 
	C331.303253,534.667175 320.155579,533.229004 309.189301,530.806702 
	C306.593689,530.233398 302.797729,526.756042 302.788147,524.600220 
	C302.769897,520.486816 307.167145,519.441223 311.671417,518.906494 
	C315.032471,518.951721 318.283722,524.058594 320.377563,518.135620 
	C321.585144,518.995361 322.471588,519.736938 323.409668,520.406311 
	C327.316589,523.194275 331.482819,524.845764 336.431732,523.719543 
	C341.301819,522.611267 344.617340,519.953552 345.252167,516.157349 
	C348.670898,519.039368 352.278900,522.080994 356.178711,525.363342 
	C357.987579,525.730713 359.504608,525.857361 361.478088,525.990601 
	C371.394989,526.638245 379.923492,525.514832 382.826416,513.571777 
	C386.478607,520.813538 390.047485,526.175476 398.315735,525.062256 
	C403.860352,524.315735 406.684845,521.796875 408.707336,514.989258 
	C413.237000,520.271973 414.872559,520.141663 419.053070,513.857605 
	C422.642914,508.461365 424.170258,502.445648 423.941284,495.539581 
	C423.919800,487.743011 422.045532,480.930145 417.711426,474.506775 
	C417.708862,473.036987 417.830566,471.884979 417.952301,470.732971 
	C423.823547,476.180420 429.375092,481.922913 430.956329,490.153015 
	C432.884369,500.188416 431.584045,509.471008 423.177734,516.770447 
	C427.689789,517.220154 431.830963,517.632874 436.362061,518.104980 
z"/>
<path fill="#EE710E" opacity="1.000000" stroke="none" 
	d="
M156.070572,240.692978 
	C153.108383,230.276947 154.986221,220.248703 159.398697,210.796509 
	C162.842804,203.418671 167.338181,196.531555 171.858185,189.587997 
	C173.143677,201.414352 170.330673,214.084122 181.451935,224.339371 
	C181.912155,221.285675 182.148132,219.719894 182.537003,217.139572 
	C187.800735,221.080963 191.125198,225.526062 192.946808,231.748795 
	C191.592453,234.233917 189.994965,235.884750 189.301697,237.853928 
	C186.891800,244.699005 181.205154,248.085983 175.011246,248.591003 
	C167.225708,249.225769 160.735657,245.128067 156.192841,237.938309 
	C156.141449,239.096024 156.106018,239.894501 156.070572,240.692978 
z"/>
<path fill="#EC760F" opacity="1.000000" stroke="none" 
	d="
M265.115784,125.993057 
	C267.378082,120.946114 269.443054,115.798454 271.954651,110.878792 
	C274.824677,105.257111 278.092010,99.838272 281.439087,93.882210 
	C287.866669,98.842339 292.288727,106.382263 295.095825,115.849220 
	C294.474579,123.960983 292.663727,130.794281 286.955750,135.884659 
	C282.195648,140.129745 275.075684,142.647858 270.685455,135.709991 
	C268.691040,132.558243 266.964081,129.237259 265.115784,125.993057 
M278.127350,118.846001 
	C280.167419,117.104721 280.559601,114.952477 278.211365,113.595482 
	C277.315521,113.077820 275.264526,114.559059 273.739990,115.129333 
	C274.958099,116.435501 276.176208,117.741669 278.127350,118.846001 
z"/>
<path fill="#EC7312" opacity="1.000000" stroke="none" 
	d="
M428.842926,259.080353 
	C423.021729,251.682785 417.200500,244.285217 411.228760,236.616440 
	C412.828491,233.970352 414.578735,231.595459 416.916565,228.423309 
	C417.844360,231.021255 418.442596,233.149002 419.348175,235.136765 
	C421.164154,239.122726 423.037537,239.284134 425.827209,235.868820 
	C430.740417,229.853622 431.622833,222.707672 431.328674,214.359833 
	C439.120911,222.073944 444.184174,230.206879 445.512909,241.045319 
	C445.184174,243.731110 445.040283,245.707748 444.968536,246.693558 
	C443.098602,248.453735 441.873840,249.859711 440.407745,250.937302 
	C436.609528,253.728851 432.704987,256.375702 428.842926,259.080353 
z"/>
<path fill="#E0500E" opacity="1.000000" stroke="none" 
	d="
M156.160522,241.079071 
	C156.106018,239.894501 156.141449,239.096024 156.192841,237.938309 
	C160.735657,245.128067 167.225708,249.225769 175.011246,248.591003 
	C181.205154,248.085983 186.891800,244.699005 189.301697,237.853928 
	C189.994965,235.884750 191.592453,234.233917 192.926086,232.112762 
	C198.841034,244.699692 192.624222,258.832642 179.862564,261.805115 
	C173.125214,263.374390 167.445404,260.800079 163.573792,255.800720 
	C160.345383,251.631912 158.633835,246.288406 156.160522,241.079071 
z"/>
<path fill="#E07C13" opacity="1.000000" stroke="none" 
	d="
M397.212402,440.878571 
	C397.615021,440.940704 398.017639,441.002808 398.715149,441.143127 
	C402.309387,448.225952 405.608704,455.230652 408.946472,463.057190 
	C409.166840,467.953186 409.348785,472.027344 409.547241,476.471436 
	C411.100555,475.841919 412.003174,475.476105 412.928680,475.488861 
	C411.518982,484.179321 406.312775,488.472473 398.852875,487.493530 
	C404.570038,478.108368 403.980499,463.640381 397.599609,456.736725 
	C395.498474,465.537903 393.544556,468.286987 388.438873,469.308350 
	C393.141418,459.543121 394.091309,449.471741 392.120667,439.255371 
	C394.028748,439.921570 395.620575,440.400085 397.212402,440.878571 
z"/>
<path fill="#E05010" opacity="1.000000" stroke="none" 
	d="
M265.019897,126.395073 
	C266.964081,129.237259 268.691040,132.558243 270.685455,135.709991 
	C275.075684,142.647858 282.195648,140.129745 286.955750,135.884659 
	C292.663727,130.794281 294.474579,123.960983 295.061096,116.222855 
	C298.633606,123.713821 299.013977,131.914963 296.074524,139.977432 
	C293.156891,147.980225 285.749756,151.711700 277.351776,150.203949 
	C270.882141,149.042404 265.238220,142.229187 264.759186,134.752396 
	C264.590179,132.114975 264.856476,129.449677 265.019897,126.395073 
z"/>
<path fill="#DF8124" opacity="1.000000" stroke="none" 
	d="
M405.966370,135.026459 
	C405.947815,133.234573 405.560883,131.351822 405.976501,129.667053 
	C407.520874,123.406776 409.329254,117.211632 411.248260,110.228806 
	C417.596741,114.311234 421.894287,119.610153 422.689423,127.827026 
	C418.464111,132.770630 414.775574,137.697098 407.841064,133.318924 
	C407.651215,133.199066 406.610382,134.427017 405.966370,135.026459 
z"/>
<path fill="#CE4713" opacity="1.000000" stroke="none" 
	d="
M428.940704,259.409607 
	C432.704987,256.375702 436.609528,253.728851 440.407745,250.937302 
	C441.873840,249.859711 443.098602,248.453735 444.968536,246.693558 
	C445.040283,245.707748 445.184174,243.731110 445.493591,241.435028 
	C445.775024,241.583206 445.890900,242.050827 445.926819,243.235489 
	C445.868561,244.900040 445.890228,245.847549 445.911896,246.795059 
	C446.122620,255.803329 442.574036,262.614807 433.992493,266.854736 
	C432.135742,264.609039 430.587128,262.173950 428.940704,259.409607 
z"/>
<path fill="#D56C20" opacity="1.000000" stroke="none" 
	d="
M206.894150,189.985443 
	C208.578888,186.664825 210.210876,183.731781 212.016251,180.487091 
	C215.200287,184.394531 216.639526,194.441299 214.608261,197.508179 
	C213.812866,198.709091 211.885468,200.058273 210.703400,199.873108 
	C209.290634,199.651810 207.468307,198.076431 207.009583,196.693954 
	C206.374237,194.779190 206.844528,192.497574 206.894150,189.985443 
z"/>
<path fill="#DB5114" opacity="1.000000" stroke="none" 
	d="
M405.940247,135.393280 
	C406.610382,134.427017 407.651215,133.199066 407.841064,133.318924 
	C414.775574,137.697098 418.464111,132.770630 422.645813,128.227829 
	C422.287567,131.549469 422.350433,135.380249 420.825836,138.412933 
	C417.615479,144.798767 411.843475,144.934341 407.684174,139.183701 
	C406.939606,138.154266 406.496399,136.906860 405.940247,135.393280 
z"/>
<path fill="#402A2B" opacity="1.000000" stroke="none" 
	d="
M182.077469,326.427490 
	C182.439529,327.933319 182.837067,329.846863 182.961594,331.778015 
	C183.649918,342.451385 184.331268,353.126007 184.868042,363.807587 
	C184.980927,366.053833 184.478928,368.330963 183.936707,370.868561 
	C180.344467,356.476715 180.818192,341.672760 182.077469,326.427490 
z"/>
<path fill="#ECC888" opacity="1.000000" stroke="none" 
	d="
M412.905762,475.110291 
	C412.003174,475.476105 411.100555,475.841919 409.547241,476.471436 
	C409.348785,472.027344 409.166840,467.953186 409.030762,463.417511 
	C411.957794,465.351501 414.838928,467.747009 417.836182,470.437744 
	C417.830566,471.884979 417.708862,473.036987 417.388794,474.523193 
	C415.819244,475.908142 414.112488,471.272583 412.905762,475.110291 
z"/>
<path fill="#EC7312" opacity="1.000000" stroke="none" 
	d="
M446.088562,246.586395 
	C445.890228,245.847549 445.868561,244.900040 445.873901,243.598877 
	C446.022339,244.289413 446.143768,245.333572 446.088562,246.586395 
z"/>
<path fill="#472515" opacity="1.000000" stroke="none" 
	d="
M309.999908,82.949265 
	C309.523041,82.910095 309.219391,82.648849 308.915741,82.387604 
	C309.252380,82.230751 309.588989,82.073906 310.196716,82.082108 
	C310.369568,82.407166 310.271362,82.567184 309.999908,82.949265 
z"/>
<path fill="#F18D0C" opacity="1.000000" stroke="none" 
	d="
M413.996613,323.940643 
	C404.601227,321.482941 395.220978,321.122864 385.424744,323.767487 
	C383.943756,322.598633 382.865997,321.073944 381.868195,321.124603 
	C369.318054,321.762024 356.768707,322.491211 344.242188,323.486847 
	C337.192688,324.047150 330.198914,325.291412 323.152374,325.915833 
	C320.741364,326.129486 318.134308,324.777039 315.808838,325.198730 
	C305.557129,327.057861 295.741394,325.302673 285.920959,322.581421 
	C284.360077,322.148865 282.462128,322.932587 280.720032,323.153992 
	C274.811218,322.836639 268.902435,322.519287 262.371185,321.961609 
	C261.161957,322.071198 260.575165,322.421082 259.988373,322.770996 
	C259.278076,322.923584 258.567749,323.076202 257.194519,322.936279 
	C248.351700,322.096649 239.971451,320.230865 232.057510,321.433563 
	C226.084732,322.341248 216.894089,320.386078 215.252853,331.473022 
	C215.081558,329.964050 215.025681,329.471771 214.971680,328.524536 
	C215.661667,320.722778 216.349777,313.375977 217.280914,305.745117 
	C218.009598,303.544434 218.408127,301.600586 218.996811,299.716187 
	C220.950455,293.462646 222.972534,287.230469 225.306870,281.035370 
	C227.847336,281.700104 230.049301,282.319580 232.635452,282.956360 
	C235.140793,282.239746 237.733124,282.047699 239.304291,280.681396 
	C247.584656,273.480591 254.938950,265.474579 259.403839,255.005295 
	C260.873291,255.939041 262.008575,256.807373 263.004364,257.813751 
	C264.294647,259.117737 265.341187,261.556458 266.721771,261.735046 
	C277.039398,263.069397 287.396149,264.560120 297.774048,264.865326 
	C314.720001,265.363739 331.691803,265.060974 348.651611,264.941833 
	C351.586945,264.921265 354.514740,264.122162 357.449799,263.709595 
	C363.916443,262.800690 370.385498,261.909027 377.050293,261.289551 
	C381.770721,265.804169 385.953278,270.501740 390.905487,274.156433 
	C396.926605,278.599976 400.222900,277.942596 406.181976,272.928589 
	C408.889801,272.952789 411.143982,272.952789 413.678650,272.952789 
	C413.497009,270.639557 413.371185,269.036652 413.503143,267.690033 
	C416.494324,272.820587 419.555786,277.544006 421.882812,282.605072 
	C425.226013,289.876160 428.034271,297.393188 431.053009,305.208374 
	C431.742310,307.726105 432.449493,309.840668 433.114502,311.972839 
	C433.072327,311.990417 433.111786,311.908020 433.078552,312.358948 
	C433.045349,315.333679 433.045349,317.857452 433.045349,320.006439 
	C428.460602,320.006439 424.774261,319.514008 421.304413,320.168793 
	C418.723145,320.655914 416.422333,322.629242 413.996613,323.940643 
M256.116028,313.351807 
	C263.684692,309.483856 271.099609,305.197327 280.239441,308.406555 
	C281.266510,308.767212 283.162109,306.654327 284.654938,305.688507 
	C283.622345,304.183502 282.927246,301.962585 281.501923,301.290649 
	C272.795197,297.185883 258.664703,299.823853 251.685562,306.841949 
	C250.552429,307.981415 249.629089,310.936920 250.284866,311.852386 
	C251.159119,313.072845 253.674164,313.117950 256.116028,313.351807 
M395.513550,300.822510 
	C389.503815,298.679260 383.380157,298.387543 377.524384,300.903809 
	C375.710632,301.683228 374.646454,304.207031 373.239075,305.932159 
	C375.177673,306.669128 377.351562,308.378174 379.014343,307.975677 
	C386.426910,306.181427 392.757751,308.395386 398.881805,312.147552 
	C399.586029,312.579010 400.362762,313.236603 401.090698,313.217316 
	C402.934723,313.168304 404.770111,312.793915 406.608978,312.549835 
	C406.253723,310.597748 406.573853,307.890411 405.406494,306.846436 
	C402.751312,304.471924 399.365540,302.914337 395.513550,300.822510 
M410.028564,293.452881 
	C413.352295,294.425446 415.363617,292.641205 415.748840,289.773285 
	C415.986267,288.005371 415.125732,285.464783 413.830200,284.338165 
	C412.980682,283.599396 409.343903,284.265747 408.937592,285.181885 
	C408.015961,287.259979 408.279541,289.879608 408.180511,292.284027 
	C408.169556,292.550140 408.932251,292.848145 410.028564,293.452881 
z"/>
<path fill="#F4A10B" opacity="1.000000" stroke="none" 
	d="
M248.978271,215.996323 
	C256.657745,212.823990 264.817810,216.544434 272.367859,214.700790 
	C283.094116,212.081543 293.493042,208.131454 304.056458,204.828735 
	C306.525848,204.056671 309.080109,203.531326 311.620789,203.018723 
	C314.204895,202.497345 316.835205,202.205185 319.419434,201.684357 
	C326.994385,200.157684 334.500488,198.145401 342.140747,197.130341 
	C348.672363,196.262558 355.352173,196.510193 361.812500,196.034027 
	C374.360626,190.324173 383.149811,180.707413 390.075226,167.710083 
	C401.914581,191.148239 405.300751,213.849030 394.777435,237.800842 
	C394.998596,238.107437 395.075073,238.061859 394.743042,237.929138 
	C394.262024,238.212708 394.113007,238.628983 393.964417,239.067841 
	C393.964813,239.090408 393.919861,239.094666 393.522400,239.065521 
	C391.681152,238.752533 389.957886,238.876587 388.842865,238.112762 
	C384.488312,235.129669 379.873840,235.524719 375.112671,236.446579 
	C373.654297,236.728973 372.158936,236.819321 370.681183,237.003128 
	C356.882751,238.719299 343.097168,240.550720 329.279694,242.096878 
	C323.858337,242.703506 318.343506,243.116257 312.909668,242.845444 
	C298.352356,242.119949 283.745056,241.553452 269.298218,239.779022 
	C260.929871,238.751160 256.430939,245.186935 249.809021,247.237595 
	C249.939941,247.527725 250.070877,247.817856 250.014130,248.312683 
	C249.317291,248.714706 248.808136,248.912064 247.862488,249.077820 
	C241.411392,248.607315 241.061203,248.168549 240.990417,240.581757 
	C243.656219,232.123413 246.317245,224.059875 248.978271,215.996323 
z"/>
<path fill="#F06506" opacity="1.000000" stroke="none" 
	d="
M322.864136,443.071930 
	C310.444824,442.235260 298.025543,441.398621 285.234253,439.959229 
	C277.588043,435.193481 270.701843,430.013153 262.965271,427.062195 
	C241.514969,418.880341 225.896866,405.432251 219.393677,382.875610 
	C219.898071,381.945282 220.313293,381.068146 220.219116,380.249634 
	C219.283478,372.117645 218.263687,363.995361 217.170166,355.074982 
	C220.113586,355.074982 222.682526,355.074982 225.251465,355.074982 
	C223.179230,365.438873 223.447403,375.588318 227.900879,385.392120 
	C241.142349,414.541718 279.211853,421.151337 302.029785,398.152771 
	C306.053894,399.682037 309.409821,401.346344 312.921356,403.315247 
	C313.790344,404.774170 314.503723,405.928436 315.291321,407.443420 
	C318.567505,408.212402 321.769470,408.620728 325.297485,409.265991 
	C329.107147,409.335022 332.590790,409.167114 336.450500,409.022858 
	C339.606293,409.465454 342.459900,413.677582 345.483429,408.898804 
	C348.341156,405.595306 350.853760,402.277740 353.651428,398.886230 
	C354.615082,398.395477 355.293640,397.978699 355.870514,397.624390 
	C358.300140,401.488647 360.662476,405.245911 363.016418,409.333038 
	C363.013489,410.102875 363.018951,410.542786 363.074646,411.292542 
	C363.738708,412.073303 364.352448,412.544220 364.979187,413.416809 
	C365.658356,418.922119 366.436066,424.014465 366.954956,429.133057 
	C367.357880,433.107727 365.811584,435.383942 361.322601,435.099304 
	C359.938202,435.011536 358.484192,436.021362 356.678284,436.624084 
	C355.100006,437.079956 353.905518,437.440399 352.503967,437.565735 
	C350.522644,434.549408 348.748413,431.768158 346.916016,428.666748 
	C345.510773,427.521729 344.163666,426.696899 342.816589,425.872040 
	C342.816376,427.401459 342.793213,428.931335 342.822479,430.460205 
	C342.850769,431.938812 342.808350,433.434021 343.014618,434.891144 
	C343.666931,439.499237 342.052765,441.695648 337.120056,441.056580 
	C334.864349,440.764343 332.539307,441.006897 330.245728,441.006897 
	C330.255371,441.235138 330.265015,441.463348 330.274658,441.691589 
	C330.865601,441.960785 331.456512,442.229980 331.601624,442.589203 
	C328.728027,442.786560 326.300232,442.893860 323.620483,443.020630 
	C323.200409,443.050690 323.032257,443.061310 322.864136,443.071930 
z"/>
<path fill="#F08008" opacity="1.000000" stroke="none" 
	d="
M281.001617,323.389038 
	C282.462128,322.932587 284.360077,322.148865 285.920959,322.581421 
	C295.741394,325.302673 305.557129,327.057861 315.808838,325.198730 
	C318.134308,324.777039 320.741364,326.129486 323.152374,325.915833 
	C330.198914,325.291412 337.192688,324.047150 344.242188,323.486847 
	C356.768707,322.491211 369.318054,321.762024 381.868195,321.124603 
	C382.865997,321.073944 383.943756,322.598633 385.021912,323.816284 
	C370.976288,330.132843 361.029083,339.926270 356.347504,355.744049 
	C341.893860,349.246216 327.490479,347.376556 313.016785,356.181610 
	C307.635468,339.563049 297.391937,328.630157 281.001617,323.389038 
z"/>
<path fill="#F3BD10" opacity="1.000000" stroke="none" 
	d="
M366.998779,169.009766 
	C366.237366,168.442001 364.934418,167.980301 364.799194,167.289886 
	C363.594299,161.138992 359.169678,160.608398 354.201843,161.014938 
	C348.424011,161.487732 342.406769,159.614563 336.989868,164.117340 
	C335.863586,165.053558 331.317505,161.875671 328.163574,160.292999 
	C328.580231,158.528137 329.180817,157.064056 330.184143,155.537689 
	C330.886719,156.010101 331.186523,156.544800 331.884125,157.788925 
	C333.909821,150.513153 339.001953,144.677032 336.329102,136.742065 
	C338.268127,130.124405 337.627319,123.120323 341.435760,117.272591 
	C344.471466,119.547638 346.805542,121.296852 349.139618,123.046066 
	C353.394348,129.099152 357.649078,135.152222 361.903503,141.811859 
	C361.978638,143.332703 361.901367,144.291656 362.153381,145.154373 
	C364.437408,152.972473 368.263611,160.470657 366.998779,169.009766 
z"/>
<path fill="#481D24" opacity="1.000000" stroke="none" 
	d="
M315.217133,407.082703 
	C314.503723,405.928436 313.790344,404.774170 312.887207,402.944885 
	C312.054871,399.311859 311.412231,396.353851 310.769623,393.395813 
	C311.769104,388.307648 309.305389,382.541931 314.538666,378.049927 
	C327.113312,377.970795 338.905823,377.970795 350.903503,377.970795 
	C350.903503,376.424774 350.903503,375.282471 350.876221,373.878357 
	C350.854492,373.441193 350.860046,373.265778 350.865601,373.090393 
	C352.027466,373.685455 353.189362,374.280487 354.725647,375.409668 
	C354.522156,383.615936 353.944244,391.288086 353.366364,398.960205 
	C350.853760,402.277740 348.341156,405.595306 345.475464,408.490570 
	C343.361572,404.077850 342.325592,399.501740 339.679291,396.226807 
	C335.090485,390.547943 328.163879,390.592346 323.230896,395.949707 
	C320.835693,398.550934 319.515564,402.124298 317.568481,405.167847 
	C317.051086,405.976532 316.015045,406.453461 315.217133,407.082703 
z"/>
<path fill="#F07F09" opacity="1.000000" stroke="none" 
	d="
M225.470886,354.804871 
	C222.682526,355.074982 220.113586,355.074982 217.170166,355.074982 
	C218.263687,363.995361 219.283478,372.117645 220.219116,380.249634 
	C220.313293,381.068146 219.898071,381.945282 219.313873,382.502991 
	C217.553192,373.818604 216.197891,365.426453 214.871155,356.611633 
	C214.923080,347.119141 214.946442,338.049316 214.969788,328.979492 
	C215.025681,329.471771 215.081558,329.964050 215.252853,331.473022 
	C216.894089,320.386078 226.084732,322.341248 232.057510,321.433563 
	C239.971451,320.230865 248.351700,322.096649 256.830811,322.952637 
	C241.558868,328.567596 230.660278,338.571106 225.470886,354.804871 
z"/>
<path fill="#EFECAB" opacity="1.000000" stroke="none" 
	d="
M431.070862,304.805206 
	C428.034271,297.393188 425.226013,289.876160 421.882812,282.605072 
	C419.555786,277.544006 416.494324,272.820587 413.461243,267.359070 
	C407.194183,259.030487 401.172211,251.330002 395.318665,243.503616 
	C394.446533,242.337509 394.366394,240.579071 393.919861,239.094666 
	C393.919861,239.094666 393.964813,239.090408 394.263550,239.039902 
	C394.733185,238.680222 394.904144,238.371033 395.075073,238.061859 
	C395.075073,238.061859 394.998596,238.107437 395.013245,238.148987 
	C396.033386,237.444870 397.038910,236.699219 398.442810,235.658142 
	C417.817230,255.943741 432.848206,278.721344 441.118835,306.488892 
	C441.106750,310.337585 441.355743,313.434875 436.776184,313.205048 
	C436.192078,313.175751 435.542664,314.446899 434.734680,314.862976 
	C434.067810,313.709564 433.589813,312.808807 433.111786,311.908020 
	C433.111786,311.908020 433.072327,311.990417 433.166931,311.581940 
	C432.531311,309.050720 431.801117,306.927948 431.070862,304.805206 
z"/>
<path fill="#E57D12" opacity="1.000000" stroke="none" 
	d="
M371.929352,387.712921 
	C363.128052,375.511414 362.611847,360.239258 370.588898,348.055023 
	C378.816223,335.488678 393.327942,329.567719 407.752716,332.891693 
	C422.199982,336.220825 433.105713,347.777588 434.633209,362.644226 
	C435.170654,367.875031 433.522522,373.330444 432.366058,378.753723 
	C430.227448,376.209381 428.595093,373.594574 426.741272,370.766357 
	C425.977692,369.462463 425.435608,368.372009 424.999878,366.889709 
	C427.841553,361.840698 427.812561,355.876099 424.942566,352.820129 
	C424.844604,352.679016 424.902252,352.340302 424.935181,351.943726 
	C424.704437,349.481201 424.440735,347.415253 424.141052,345.067383 
	C422.783936,345.067383 421.643219,345.067383 420.191589,344.989380 
	C418.885742,344.045227 417.987640,343.022064 416.879944,342.338684 
	C410.087708,338.147827 403.119720,334.871277 394.604767,338.899017 
	C392.187714,339.015961 389.654175,338.473236 388.301941,339.494598 
	C379.842987,345.883453 371.110291,352.421082 371.100555,364.473541 
	C371.096558,369.455811 372.400696,374.439148 373.022278,379.805420 
	C372.599579,382.696838 372.264465,385.204895 371.929352,387.712921 
z"/>
<path fill="#ED6608" opacity="1.000000" stroke="none" 
	d="
M397.179230,440.471863 
	C395.620575,440.400085 394.028748,439.921570 391.909149,438.980774 
	C388.544434,429.814697 383.353973,422.661530 376.857147,415.921326 
	C376.961639,412.565857 377.018585,409.689362 377.075500,406.812805 
	C381.453735,408.189667 385.785095,409.745667 390.219910,410.906189 
	C399.498260,413.334137 408.538757,411.607727 417.996033,409.397949 
	C413.268616,415.097809 408.047699,420.345856 402.766632,425.532684 
	C401.188477,427.082672 399.442322,428.461609 397.773132,429.918945 
	C393.484863,433.048889 397.830963,436.712463 397.179230,440.471863 
z"/>
<path fill="#3F2B2C" opacity="1.000000" stroke="none" 
	d="
M299.206696,371.510406 
	C299.139038,373.005524 298.877991,374.521759 299.038666,375.991943 
	C299.599426,381.123291 298.444122,385.506042 294.224701,388.863464 
	C293.368622,389.544678 292.928284,390.748413 291.626801,391.905609 
	C289.609344,392.145447 288.261383,392.190948 286.535217,392.190125 
	C285.559723,391.874207 284.987488,391.494171 284.361267,391.352356 
	C279.055328,390.150848 275.125549,386.529602 274.136566,381.763702 
	C272.970123,376.142456 272.999634,369.842957 278.903870,365.832062 
	C280.385010,364.825836 281.787170,363.703369 283.531189,362.843811 
	C287.792206,363.677460 291.747620,364.301636 295.845612,365.249817 
	C297.061005,367.552643 298.133850,369.531525 299.206696,371.510406 
z"/>
<path fill="#EFE6C6" opacity="1.000000" stroke="none" 
	d="
M434.923523,315.115601 
	C435.542664,314.446899 436.192078,313.175751 436.776184,313.205048 
	C441.355743,313.434875 441.106750,310.337585 441.096100,306.851929 
	C448.384979,327.222839 450.063568,348.434631 445.633728,370.082031 
	C445.494934,360.955261 443.309265,352.417938 438.967834,343.613220 
	C437.574677,333.595093 436.249084,324.355347 434.923523,315.115601 
z"/>
<path fill="#E97E10" opacity="1.000000" stroke="none" 
	d="
M235.157242,358.960236 
	C239.480530,338.756927 260.420746,327.335968 280.587158,334.441895 
	C275.620026,336.160187 270.808655,337.533966 265.644745,339.023254 
	C258.975891,341.750641 253.677689,345.777191 249.551712,351.170654 
	C247.715881,353.570374 246.530136,356.467407 244.889587,358.849854 
	C244.056610,358.182953 242.844589,357.407471 242.787979,357.484222 
	C240.670868,360.354401 237.789886,359.015564 235.157242,358.960236 
z"/>
<path fill="#E57310" opacity="1.000000" stroke="none" 
	d="
M333.087646,359.990051 
	C339.779694,361.581116 346.165924,362.808594 352.202850,364.998779 
	C353.982361,365.644379 354.774139,369.012421 356.361816,371.717621 
	C348.047455,371.717621 341.339020,371.717621 334.630585,371.717621 
	C327.992859,371.717621 321.355133,371.717621 314.794342,371.717621 
	C313.149963,368.286957 313.997284,366.208252 317.123993,365.140259 
	C322.282837,363.378235 327.472015,361.704926 333.087646,359.990051 
z"/>
<path fill="#EA650C" opacity="1.000000" stroke="none" 
	d="
M235.013000,359.357422 
	C237.789886,359.015564 240.670868,360.354401 242.787979,357.484222 
	C242.844589,357.407471 244.056610,358.182953 244.926743,359.307251 
	C245.788376,366.992645 246.453110,373.931763 246.762726,380.967560 
	C246.238449,382.642242 245.348770,384.696838 246.023376,385.716766 
	C249.134293,390.420105 252.681000,394.835266 256.071442,399.353729 
	C240.054855,393.072357 231.020142,376.198730 235.013000,359.357422 
z"/>
<path fill="#E8740B" opacity="1.000000" stroke="none" 
	d="
M376.999207,406.488037 
	C377.018585,409.689362 376.961639,412.565857 376.533997,415.780151 
	C373.441345,414.688965 370.719391,413.259979 368.132538,411.568909 
	C367.466827,407.167145 366.803436,406.875641 363.024811,409.003143 
	C360.662476,405.245911 358.300140,401.488647 355.870514,397.624390 
	C355.293640,397.978699 354.615082,398.395477 353.651428,398.886230 
	C353.944244,391.288086 354.522156,383.615936 355.054199,375.478882 
	C358.310913,384.515594 361.992157,393.797119 370.023560,400.510101 
	C372.304688,402.416779 374.622101,404.280060 376.999207,406.488037 
z"/>
<path fill="#B9431D" opacity="1.000000" stroke="none" 
	d="
M256.319519,399.592468 
	C252.681000,394.835266 249.134293,390.420105 246.023376,385.716766 
	C245.348770,384.696838 246.238449,382.642242 247.126587,381.015930 
	C255.869766,395.019348 272.821259,402.208832 286.913422,392.236450 
	C288.261383,392.190948 289.609344,392.145447 291.356812,392.129547 
	C287.643402,399.401489 280.157776,400.788300 273.118988,401.598175 
	C267.740814,402.216980 262.094574,400.505859 256.319519,399.592468 
z"/>
<path fill="#ED810E" opacity="1.000000" stroke="none" 
	d="
M434.734680,314.862976 
	C436.249084,324.355347 437.574677,333.595093 438.861725,343.241028 
	C432.638275,334.837036 424.917786,327.951874 414.298004,324.132019 
	C416.422333,322.629242 418.723145,320.655914 421.304413,320.168793 
	C424.774261,319.514008 428.460602,320.006439 433.045349,320.006439 
	C433.045349,317.857452 433.045349,315.333679 433.078552,312.358948 
	C433.589813,312.808807 434.067810,313.709564 434.734680,314.862976 
z"/>
<path fill="#E37A1A" opacity="1.000000" stroke="none" 
	d="
M265.997314,338.907776 
	C270.808655,337.533966 275.620026,336.160187 280.885071,334.670105 
	C281.338776,334.553802 281.320312,334.597870 281.274231,334.980774 
	C282.480286,335.604584 283.732361,335.845459 284.984467,336.086304 
	C301.210663,344.263672 308.739319,364.400696 300.605377,380.646729 
	C300.218475,377.127563 299.949585,374.682007 299.443695,371.873444 
	C298.133850,369.531525 297.061005,367.552643 295.985687,364.849060 
	C298.854004,355.970367 296.928131,348.588379 290.514282,343.161743 
	C284.077148,337.715363 274.916992,336.094543 268.632904,339.296814 
	C267.502930,339.127258 266.750122,339.017517 265.997314,338.907776 
z"/>
<path fill="#AE4820" opacity="1.000000" stroke="none" 
	d="
M372.008545,387.995972 
	C372.264465,385.204895 372.599579,382.696838 373.317047,379.893860 
	C376.974030,384.047821 379.437622,389.633240 383.710876,392.682709 
	C390.340912,397.414062 400.747650,399.700073 412.058411,392.424438 
	C414.199585,392.097900 416.136963,391.641815 417.878632,391.389099 
	C417.101013,392.058014 416.519073,392.523529 415.639648,393.134186 
	C412.288086,395.953674 409.233948,398.627991 406.179810,401.302338 
	C392.129211,403.994049 381.107513,398.756805 372.008545,387.995972 
z"/>
<path fill="#EFE6C6" opacity="1.000000" stroke="none" 
	d="
M398.174011,429.973267 
	C399.442322,428.461609 401.188477,427.082672 402.766632,425.532684 
	C408.047699,420.345856 413.268616,415.097809 418.397339,409.512207 
	C418.282166,409.151245 418.174316,409.064270 418.478149,409.172791 
	C419.050385,408.876160 419.318756,408.471008 419.587158,408.065857 
	C422.839111,405.720367 426.091034,403.374878 429.529419,400.714966 
	C429.715851,400.400574 429.688416,400.349030 429.688416,400.349030 
	C430.857910,406.001038 429.876404,410.983368 425.568146,415.188599 
	C417.926208,422.647736 408.763733,427.248596 398.174011,429.973267 
z"/>
<path fill="#E7D2D4" opacity="1.000000" stroke="none" 
	d="
M350.903503,374.140167 
	C350.903503,375.282471 350.903503,376.424774 350.903503,377.970795 
	C338.905823,377.970795 327.113312,377.970795 314.893555,377.861511 
	C314.572479,376.715546 314.678680,375.678833 315.372437,374.364685 
	C327.607819,374.104858 339.255676,374.122498 350.903503,374.140167 
z"/>
<path fill="#B16C39" opacity="1.000000" stroke="none" 
	d="
M409.613037,431.309784 
	C414.778107,428.340698 419.576538,425.415863 424.487061,422.693115 
	C428.877319,420.258820 430.443359,414.056152 436.851135,412.661621 
	C433.057068,423.431854 418.354675,433.184692 407.539612,432.699768 
	C408.305450,432.151093 408.800323,431.796539 409.613037,431.309784 
z"/>
<path fill="#E0B438" opacity="1.000000" stroke="none" 
	d="
M367.000305,169.448990 
	C368.263611,160.470657 364.437408,152.972473 362.153381,145.154373 
	C361.901367,144.291656 361.978638,143.332703 362.076233,142.116760 
	C371.760010,159.208679 372.236908,176.477570 361.236755,193.757141 
	C362.411072,189.112335 364.026672,184.340240 365.304352,179.479309 
	C366.126953,176.349777 366.453125,173.089752 367.000305,169.448990 
z"/>
<path fill="#DCB141" opacity="1.000000" stroke="none" 
	d="
M349.007446,122.725021 
	C346.805542,121.296852 344.471466,119.547638 341.435760,117.272591 
	C337.627319,123.120323 338.268127,130.124405 336.156860,136.679337 
	C335.744934,136.935883 335.407318,136.799026 335.407318,136.799026 
	C336.465820,127.946571 337.056824,119.108330 334.112030,109.265739 
	C340.621857,112.881760 344.717377,117.679848 349.007446,122.725021 
z"/>
<path fill="#D37923" opacity="1.000000" stroke="none" 
	d="
M444.787598,400.931702 
	C444.212646,405.278961 442.446075,408.261871 438.136383,408.843811 
	C435.247192,409.233948 432.936676,407.506317 434.089966,404.963196 
	C435.290131,402.316803 438.057434,400.214813 440.541870,398.437134 
	C441.144562,398.005890 443.327332,399.782990 444.787598,400.931702 
z"/>
<path fill="#D37923" opacity="1.000000" stroke="none" 
	d="
M415.937103,392.989044 
	C416.519073,392.523529 417.101013,392.058014 418.210754,391.275330 
	C427.249542,386.255188 428.932343,382.167358 426.962769,370.979797 
	C428.595093,373.594574 430.227448,376.209381 432.165863,379.085938 
	C429.540222,383.809753 426.608521,388.271790 422.932617,392.869415 
	C420.104645,392.999695 418.020874,392.994385 415.937103,392.989044 
z"/>
<path fill="#E57310" opacity="1.000000" stroke="none" 
	d="
M310.560791,393.088867 
	C311.412231,396.353851 312.054871,399.311859 312.731628,402.640259 
	C309.409821,401.346344 306.053894,399.682037 302.319336,397.990906 
	C304.352020,394.646759 306.763428,391.329437 309.450378,387.633057 
	C309.806213,389.665039 310.079102,391.223480 310.560791,393.088867 
z"/>
<path fill="#E7620B" opacity="1.000000" stroke="none" 
	d="
M415.639648,393.134186 
	C418.020874,392.994385 420.104645,392.999695 422.634277,393.017883 
	C417.703247,395.747681 412.326355,398.464600 406.564636,401.241943 
	C409.233948,398.627991 412.288086,395.953674 415.639648,393.134186 
z"/>
<path fill="#F4AA0C" opacity="1.000000" stroke="none" 
	d="
M335.297699,137.215912 
	C335.407318,136.799026 335.744934,136.935883 335.917175,136.998627 
	C339.001953,144.677032 333.909821,150.513153 331.884125,157.788925 
	C331.186523,156.544800 330.886719,156.010101 330.404633,155.275284 
	C331.877594,149.261047 333.532837,143.446930 335.297699,137.215912 
z"/>
<path fill="#000000" opacity="1.000000" stroke="none" 
	d="
M350.876221,373.878357 
	C339.255676,374.122498 327.607819,374.104858 315.494324,374.072327 
	C316.579437,373.717316 318.127930,373.095276 319.681305,373.082916 
	C329.772583,373.002594 339.864868,373.054810 350.411224,373.076996 
	C350.860046,373.265778 350.854492,373.441193 350.876221,373.878357 
z"/>
<path fill="#E97E10" opacity="1.000000" stroke="none" 
	d="
M284.711914,335.881836 
	C283.732361,335.845459 282.480286,335.604584 281.265228,335.002808 
	C282.347992,334.987061 283.393677,335.332214 284.711914,335.881836 
z"/>
<path fill="#F07F09" opacity="1.000000" stroke="none" 
	d="
M260.272095,322.796906 
	C260.575165,322.421082 261.161957,322.071198 261.910797,321.936584 
	C261.567169,322.375519 261.061493,322.599182 260.272095,322.796906 
z"/>
<path fill="#ED6608" opacity="1.000000" stroke="none" 
	d="
M419.232574,408.095398 
	C419.318756,408.471008 419.050385,408.876160 418.417877,409.206909 
	C418.328491,408.796661 418.603241,408.460785 419.232574,408.095398 
z"/>
<path fill="#EFE6C6" opacity="1.000000" stroke="none" 
	d="
M429.706329,400.416870 
	C430.002533,400.531525 430.308289,400.629913 430.614014,400.728302 
	C430.364471,400.784363 430.114899,400.840393 429.776886,400.622742 
	C429.688416,400.349030 429.715851,400.400574 429.706329,400.416870 
z"/>
<path fill="#B9431D" opacity="1.000000" stroke="none" 
	d="
M320.080170,517.984314 
	C318.283722,524.058594 315.032471,518.951721 312.045349,518.935669 
	C312.537750,517.983826 313.433838,517.073547 314.151947,515.917725 
	C314.197327,515.192261 314.420746,514.712341 315.133118,514.039734 
	C317.108124,515.226135 318.594147,516.605225 320.080170,517.984314 
z"/>
<path fill="#F0F5F1" opacity="1.000000" stroke="none" 
	d="
M275.113464,512.057861 
	C275.284668,512.042297 275.572296,512.226562 275.846313,512.671265 
	C275.539490,512.789551 275.338562,512.564941 275.113464,512.057861 
z"/>
<path fill="#F18E0C" opacity="1.000000" stroke="none" 
	d="
M320.377563,518.135620 
	C318.594147,516.605225 317.108124,515.226135 315.369995,513.905151 
	C313.077423,511.245331 311.036926,508.527435 308.788452,505.155823 
	C304.809387,494.164429 305.001007,484.080750 310.309265,474.233215 
	C312.654114,469.883301 314.745483,465.396759 317.133759,460.677734 
	C318.520599,457.532288 319.725616,454.681366 320.930664,451.830444 
	C321.598328,449.177887 322.265991,446.525330 322.898895,443.472351 
	C323.032257,443.061310 323.200409,443.050690 323.616028,443.461243 
	C324.215027,446.645752 324.566528,449.409149 324.910431,452.407288 
	C324.902863,452.642090 324.798645,453.100159 324.443634,453.157257 
	C321.048309,461.378510 317.509399,469.401428 315.142426,477.756348 
	C313.555573,483.357574 312.990753,489.447449 313.152344,495.285889 
	C313.297852,500.541687 315.982697,505.067993 321.190186,507.583038 
	C326.252747,510.028076 330.812714,508.583313 334.670593,505.423218 
	C340.436584,500.700226 341.660736,494.480438 338.367432,486.972687 
	C344.793823,489.854523 347.275848,494.458038 348.165466,500.415009 
	C348.900513,505.337006 350.025391,505.783051 354.431549,503.717896 
	C362.122253,500.113312 366.019165,494.069458 366.083191,485.569763 
	C366.097412,483.683899 366.085266,481.797821 366.085266,479.397888 
	C378.624390,489.125092 395.312256,494.669189 392.685822,514.934570 
	C393.129028,515.055664 393.572235,515.176758 394.015442,515.297852 
	C396.096039,512.413513 398.176636,509.529205 400.315735,506.563751 
	C411.838165,510.041260 420.124725,503.897278 423.904480,495.973297 
	C424.170258,502.445648 422.642914,508.461365 419.053070,513.857605 
	C414.872559,520.141663 413.237000,520.271973 408.707336,514.989258 
	C406.684845,521.796875 403.860352,524.315735 398.315735,525.062256 
	C390.047485,526.175476 386.478607,520.813538 382.826416,513.571777 
	C379.923492,525.514832 371.394989,526.638245 361.613281,525.662842 
	C360.743896,523.917480 360.195770,522.506531 359.647644,521.095581 
	C358.394073,522.437927 357.140503,523.780273 355.886902,525.122620 
	C352.278900,522.080994 348.670898,519.039368 345.252167,516.157349 
	C344.617340,519.953552 341.301819,522.611267 336.431732,523.719543 
	C331.482819,524.845764 327.316589,523.194275 323.409668,520.406311 
	C322.471588,519.736938 321.585144,518.995361 320.377563,518.135620 
z"/>
<path fill="#E83F05" opacity="1.000000" stroke="none" 
	d="
M214.842590,357.034302 
	C216.197891,365.426453 217.553192,373.818604 218.988281,382.583374 
	C225.896866,405.432251 241.514969,418.880341 262.965271,427.062195 
	C270.701843,430.013153 277.588043,435.193481 284.924133,439.695679 
	C267.441681,437.375702 250.398438,432.936005 234.377625,425.168732 
	C215.481461,416.007385 203.073654,400.881195 195.237152,381.707977 
	C194.931625,380.960510 194.958633,380.077179 194.884857,378.446533 
	C194.291885,376.071991 193.644775,374.508057 192.997650,372.944122 
	C192.915970,372.598999 192.834290,372.253876 192.850616,371.153076 
	C192.952148,367.746307 193.050064,365.091278 192.940750,362.444824 
	C192.657593,355.589539 192.448990,348.724091 191.876526,341.890686 
	C191.581741,338.371521 193.343399,335.908173 196.147018,335.897583 
	C198.378204,335.889099 200.616394,338.329468 202.855621,339.675751 
	C204.705307,340.787872 206.546417,342.780243 208.417236,342.811096 
	C212.319611,342.875427 213.042358,344.509369 213.115784,347.957855 
	C213.180450,350.994202 214.228699,354.009644 214.842590,357.034302 
z"/>
<path fill="#E95106" opacity="1.000000" stroke="none" 
	d="
M214.871155,356.611633 
	C214.228699,354.009644 213.180450,350.994202 213.115784,347.957855 
	C213.042358,344.509369 212.319611,342.875427 208.417236,342.811096 
	C206.546417,342.780243 204.705307,340.787872 202.855621,339.675751 
	C200.616394,338.329468 198.378204,335.889099 196.147018,335.897583 
	C193.343399,335.908173 191.581741,338.371521 191.876526,341.890686 
	C192.448990,348.724091 192.657593,355.589539 192.940750,362.444824 
	C193.050064,365.091278 192.952148,367.746307 192.920380,370.892822 
	C191.900070,364.447327 190.307617,357.530121 190.032242,350.560883 
	C189.302765,332.100403 191.859207,313.991608 197.785248,296.386505 
	C198.183517,299.088562 198.183517,301.736420 198.183517,305.969208 
	C199.479919,303.907745 200.261703,302.701935 201.005981,301.473389 
	C202.562637,298.903900 202.251328,294.884338 207.006714,294.955017 
	C219.202637,295.136322 216.732971,294.064545 217.003479,304.536072 
	C217.016342,305.033752 217.026474,305.531494 217.037888,306.029205 
	C216.349777,313.375977 215.661667,320.722778 214.971680,328.524536 
	C214.946442,338.049316 214.923080,347.119141 214.871155,356.611633 
z"/>
<path fill="#E26807" opacity="1.000000" stroke="none" 
	d="
M217.280914,305.745117 
	C217.026474,305.531494 217.016342,305.033752 217.003479,304.536072 
	C216.732971,294.064545 219.202637,295.136322 207.006714,294.955017 
	C202.251328,294.884338 202.562637,298.903900 201.005981,301.473389 
	C200.261703,302.701935 199.479919,303.907745 198.183517,305.969208 
	C198.183517,301.736420 198.183517,299.088562 198.020813,296.079224 
	C202.796921,279.038055 211.219437,264.038818 220.926056,249.143585 
	C222.683960,248.429031 224.682388,247.883194 224.674789,247.366898 
	C224.602264,242.438568 227.951248,242.950729 231.105042,242.992844 
	C233.740189,243.028046 236.376053,243.009048 238.957275,243.371338 
	C237.044250,247.936050 234.946899,252.056686 233.378189,256.369598 
	C230.414383,264.518036 227.754547,272.777039 224.968384,280.990112 
	C222.972534,287.230469 220.950455,293.462646 218.996811,299.716187 
	C218.408127,301.600586 218.009598,303.544434 217.280914,305.745117 
z"/>
<path fill="#EC5005" opacity="1.000000" stroke="none" 
	d="
M316.951935,460.972229 
	C314.745483,465.396759 312.654114,469.883301 310.309265,474.233215 
	C305.001007,484.080750 304.809387,494.164429 308.593628,504.879181 
	C303.667297,504.500763 298.727753,503.745270 293.298218,502.549438 
	C291.870361,499.188446 290.227631,496.292603 290.123749,493.342560 
	C289.780304,483.587097 290.116028,473.809814 289.935333,464.045624 
	C289.853394,459.618805 291.906860,458.712158 295.800995,459.134338 
	C302.835052,459.896942 309.899933,460.375183 316.951935,460.972229 
z"/>
<path fill="#D53709" opacity="1.000000" stroke="none" 
	d="
M317.133759,460.677734 
	C309.899933,460.375183 302.835052,459.896942 295.800995,459.134338 
	C291.906860,458.712158 289.853394,459.618805 289.935333,464.045624 
	C290.116028,473.809814 289.780304,483.587097 290.123749,493.342560 
	C290.227631,496.292603 291.870361,499.188446 292.908203,502.444641 
	C290.838257,502.030884 288.236786,501.785217 286.615387,500.395782 
	C284.866180,498.896942 282.885529,496.269745 282.988556,494.235138 
	C283.648895,481.192413 284.974213,468.184967 285.807556,455.148438 
	C286.057587,451.237213 287.856476,450.640747 291.239563,450.822968 
	C300.834167,451.339630 310.443909,451.575684 320.489136,451.876343 
	C319.725616,454.681366 318.520599,457.532288 317.133759,460.677734 
z"/>
<path fill="#D17C0C" opacity="1.000000" stroke="none" 
	d="
M239.011597,243.014053 
	C236.376053,243.009048 233.740189,243.028046 231.105042,242.992844 
	C227.951248,242.950729 224.602264,242.438568 224.674789,247.366898 
	C224.682388,247.883194 222.683960,248.429031 221.193298,248.941895 
	C225.241913,240.988800 230.337158,233.333847 234.038620,225.055664 
	C239.566589,212.692535 244.106857,199.888077 249.086594,187.278992 
	C249.556137,186.090073 248.819336,183.231644 251.904480,185.463165 
	C251.015366,195.558823 249.999313,205.360947 248.980774,215.579712 
	C246.317245,224.059875 243.656219,232.123413 240.763733,240.756714 
	C240.025391,241.888977 239.518494,242.451508 239.011597,243.014053 
z"/>
<path fill="#CA5614" opacity="1.000000" stroke="none" 
	d="
M256.835022,461.621124 
	C260.147980,456.977905 262.778778,451.483978 267.061401,448.050018 
	C269.205719,446.330658 274.370422,448.307068 278.141449,448.816498 
	C278.458527,448.859344 279.010468,450.681458 278.701599,451.303925 
	C274.976624,458.810883 271.125275,466.255493 267.247314,473.685272 
	C266.976532,474.204041 266.234528,474.476868 265.003418,474.934998 
	C263.301361,475.002625 262.307495,474.999329 261.313660,474.996002 
	C261.251648,472.352264 261.298889,469.700195 261.098846,467.066956 
	C260.869690,464.050751 259.772644,464.889130 258.169556,466.508881 
	C257.427399,464.791992 257.131195,463.206543 256.835022,461.621124 
z"/>
<path fill="#CB6618" opacity="1.000000" stroke="none" 
	d="
M278.215576,522.852661 
	C279.860504,523.244751 281.132599,523.547363 282.496155,523.871704 
	C281.808105,518.843506 281.135864,513.930725 280.353455,508.213074 
	C283.912811,509.439819 286.504089,510.069489 288.815338,511.248230 
	C289.863495,511.782806 290.884583,513.356689 290.996674,514.545959 
	C291.276093,517.511292 290.841156,520.538696 291.037842,523.518372 
	C291.286713,527.289490 289.813263,528.914978 286.106445,527.968628 
	C281.764923,526.860291 277.475677,525.547058 273.163788,524.322632 
	C273.301392,523.661621 273.439026,523.000610 273.576630,522.339600 
	C274.998657,522.480774 276.420715,522.621948 278.215576,522.852661 
z"/>
<path fill="#BC541D" opacity="1.000000" stroke="none" 
	d="
M256.567261,461.889221 
	C257.131195,463.206543 257.427399,464.791992 257.886414,466.742279 
	C255.070374,474.908417 258.192749,481.316132 264.284607,487.907074 
	C253.795563,484.647461 250.939972,473.357361 256.567261,461.889221 
z"/>
<path fill="#BC541D" opacity="1.000000" stroke="none" 
	d="
M261.281616,475.349060 
	C262.307495,474.999329 263.301361,475.002625 264.669586,475.015320 
	C266.359283,477.781708 267.674591,480.538666 269.203125,483.742523 
	C264.687927,482.985474 262.336060,480.061523 261.281616,475.349060 
z"/>
<path fill="#E95106" opacity="1.000000" stroke="none" 
	d="
M192.969940,373.329102 
	C193.644775,374.508057 194.291885,376.071991 194.920685,378.074799 
	C194.248962,376.913788 193.595581,375.313934 192.969940,373.329102 
z"/>
<path fill="#FEF015" opacity="1.000000" stroke="none" 
	d="
M423.941284,495.539581 
	C420.124725,503.897278 411.838165,510.041260 400.315735,506.563751 
	C398.176636,509.529205 396.096039,512.413513 394.015442,515.297852 
	C393.572235,515.176758 393.129028,515.055664 392.685822,514.934570 
	C395.312256,494.669189 378.624390,489.125092 366.085266,479.397888 
	C366.085266,481.797821 366.097412,483.683899 366.083191,485.569763 
	C366.019165,494.069458 362.122253,500.113312 354.431549,503.717896 
	C350.025391,505.783051 348.900513,505.337006 348.165466,500.415009 
	C347.275848,494.458038 344.793823,489.854523 338.367432,486.972687 
	C341.660736,494.480438 340.436584,500.700226 334.670593,505.423218 
	C330.812714,508.583313 326.252747,510.028076 321.190186,507.583038 
	C315.982697,505.067993 313.297852,500.541687 313.152344,495.285889 
	C312.990753,489.447449 313.555573,483.357574 315.142426,477.756348 
	C317.509399,469.401428 321.048309,461.378510 324.484283,453.562439 
	C325.270447,456.266754 325.660950,458.622986 326.034088,461.370850 
	C327.067474,467.680664 329.730042,469.364899 334.815277,466.389709 
	C337.817169,464.633453 340.639618,461.861115 342.427979,458.877502 
	C347.170471,450.965454 348.235626,442.406769 344.786133,433.600006 
	C343.842957,431.192047 342.923462,428.953735 346.974182,428.986908 
	C348.748413,431.768158 350.522644,434.549408 352.601135,438.005951 
	C353.367676,441.154785 353.829987,443.628357 354.093018,446.374878 
	C353.551361,451.145996 353.208984,455.644135 352.870880,460.085663 
	C358.779083,460.937653 362.675629,459.172119 366.408051,453.817169 
	C374.272766,442.533539 375.098114,430.498413 369.890503,417.887848 
	C369.086304,415.940430 368.620026,413.853424 367.997437,411.830994 
	C370.719391,413.259979 373.441345,414.688965 376.486450,416.259094 
	C383.353973,422.661530 388.544434,429.814697 391.592896,438.793060 
	C394.091309,449.471741 393.141418,459.543121 388.438873,469.308350 
	C393.544556,468.286987 395.498474,465.537903 397.599609,456.736725 
	C403.980499,463.640381 404.570038,478.108368 398.852875,487.493530 
	C406.312775,488.472473 411.518982,484.179321 412.928680,475.488831 
	C414.112488,471.272583 415.819244,475.908142 417.513092,474.841003 
	C422.045532,480.930145 423.919800,487.743011 423.941284,495.539581 
M321.903625,481.334869 
	C320.969971,482.655731 319.553162,483.870148 319.232422,485.326050 
	C318.879547,486.927887 318.943726,489.402252 319.921631,490.290588 
	C320.845734,491.130005 323.726532,491.056671 324.773499,490.198120 
	C326.017212,489.178223 327.052979,486.662292 326.654572,485.213989 
	C326.210510,483.599823 324.052765,482.457092 321.903625,481.334869 
z"/>
<path fill="#DCB141" opacity="1.000000" stroke="none" 
	d="
M356.178741,525.363342 
	C357.140503,523.780273 358.394073,522.437927 359.647644,521.095581 
	C360.195770,522.506531 360.743896,523.917480 361.156830,525.656189 
	C359.504608,525.857361 357.987579,525.730713 356.178741,525.363342 
z"/>
<path fill="#ECC888" opacity="1.000000" stroke="none" 
	d="
M277.760834,118.946915 
	C276.176208,117.741669 274.958099,116.435501 273.739990,115.129333 
	C275.264526,114.559059 277.315521,113.077820 278.211365,113.595482 
	C280.559601,114.952477 280.167419,117.104721 277.760834,118.946915 
z"/>
<path fill="#F4970D" opacity="1.000000" stroke="none" 
	d="
M393.522400,239.065521 
	C394.366394,240.579071 394.446533,242.337509 395.318665,243.503616 
	C401.172211,251.330002 407.194183,259.030487 413.203430,267.102722 
	C413.371185,269.036652 413.497009,270.639557 413.678650,272.952789 
	C411.143982,272.952789 408.889801,272.952789 406.238617,272.493652 
	C405.223236,268.535492 405.719452,264.109467 403.746429,261.736969 
	C400.034363,257.273438 395.321472,253.170868 390.194061,250.532440 
	C387.112579,248.946793 382.000916,249.334793 378.629669,250.774582 
	C374.244324,252.647446 376.038635,257.292511 376.853546,261.010315 
	C370.385498,261.909027 363.916443,262.800690 357.449799,263.709595 
	C354.514740,264.122162 351.586945,264.921265 348.651611,264.941833 
	C331.691803,265.060974 314.720001,265.363739 297.774048,264.865326 
	C287.396149,264.560120 277.039398,263.069397 266.721771,261.735046 
	C265.341187,261.556458 264.294647,259.117737 263.004364,257.813751 
	C262.008575,256.807373 260.873291,255.939041 259.379456,254.615845 
	C258.084442,247.907150 256.590393,246.863968 250.201797,248.107986 
	C250.070877,247.817856 249.939941,247.527725 249.809021,247.237595 
	C256.430939,245.186935 260.929871,238.751160 269.298218,239.779022 
	C283.745056,241.553452 298.352356,242.119949 312.909668,242.845444 
	C318.343506,243.116257 323.858337,242.703506 329.279694,242.096878 
	C343.097168,240.550720 356.882751,238.719299 370.681183,237.003128 
	C372.158936,236.819321 373.654297,236.728973 375.112671,236.446579 
	C379.873840,235.524719 384.488312,235.129669 388.842865,238.112762 
	C389.957886,238.876587 391.681152,238.752533 393.522400,239.065521 
z"/>
<path fill="#FDE67E" opacity="1.000000" stroke="none" 
	d="
M377.050293,261.289551 
	C376.038635,257.292511 374.244324,252.647446 378.629669,250.774582 
	C382.000916,249.334793 387.112579,248.946793 390.194061,250.532440 
	C395.321472,253.170868 400.034363,257.273438 403.746429,261.736969 
	C405.719452,264.109467 405.223236,268.535492 405.784973,272.469482 
	C400.222900,277.942596 396.926605,278.599976 390.905487,274.156433 
	C385.953278,270.501740 381.770721,265.804169 377.050293,261.289551 
z"/>
<path fill="#FAD65F" opacity="1.000000" stroke="none" 
	d="
M250.014130,248.312683 
	C256.590393,246.863968 258.084442,247.907150 258.983276,254.611816 
	C254.938950,265.474579 247.584656,273.480591 239.304291,280.681396 
	C237.733124,282.047699 235.140793,282.239746 232.568909,282.559326 
	C234.182373,269.502441 239.750381,258.575989 248.298965,249.109406 
	C248.808136,248.912064 249.317291,248.714706 250.014130,248.312683 
z"/>
<path fill="#65220F" opacity="1.000000" stroke="none" 
	d="
M255.800232,313.509888 
	C253.674164,313.117950 251.159119,313.072845 250.284866,311.852386 
	C249.629089,310.936920 250.552429,307.981415 251.685562,306.841949 
	C258.664703,299.823853 272.795197,297.185883 281.501923,301.290649 
	C282.927246,301.962585 283.622345,304.183502 284.654938,305.688507 
	C283.162109,306.654327 281.266510,308.767212 280.239441,308.406555 
	C271.099609,305.197327 263.684692,309.483856 255.800232,313.509888 
z"/>
<path fill="#F3960F" opacity="1.000000" stroke="none" 
	d="
M247.862488,249.077805 
	C239.750381,258.575989 234.182373,269.502441 232.184723,282.542084 
	C230.049301,282.319580 227.847336,281.700104 225.306885,281.035370 
	C227.754547,272.777039 230.414383,264.518036 233.378189,256.369598 
	C234.946899,252.056686 237.044250,247.936050 238.957275,243.371338 
	C239.518494,242.451508 240.025391,241.888977 240.758972,241.151505 
	C241.061203,248.168549 241.411392,248.607315 247.862488,249.077805 
z"/>
<path fill="#62210D" opacity="1.000000" stroke="none" 
	d="
M395.895142,300.923645 
	C399.365540,302.914337 402.751312,304.471924 405.406494,306.846436 
	C406.573853,307.890411 406.253723,310.597748 406.608978,312.549866 
	C404.770111,312.793915 402.934723,313.168304 401.090698,313.217316 
	C400.362762,313.236603 399.586029,312.579010 398.881805,312.147552 
	C392.757751,308.395386 386.426910,306.181427 379.014343,307.975677 
	C377.351562,308.378174 375.177673,306.669128 373.239075,305.932159 
	C374.646454,304.207031 375.710632,301.683228 377.524384,300.903809 
	C383.380157,298.387543 389.503815,298.679260 395.895142,300.923645 
z"/>
<path fill="#F2D053" opacity="1.000000" stroke="none" 
	d="
M409.682373,293.292114 
	C408.932251,292.848145 408.169556,292.550140 408.180511,292.284027 
	C408.279541,289.879608 408.015961,287.259979 408.937592,285.181885 
	C409.343903,284.265747 412.980682,283.599396 413.830200,284.338165 
	C415.125732,285.464783 415.986267,288.005371 415.748840,289.773285 
	C415.363617,292.641205 413.352295,294.425446 409.682373,293.292114 
z"/>
<path fill="#ED810E" opacity="1.000000" stroke="none" 
	d="
M431.053040,305.208374 
	C431.801117,306.927948 432.531311,309.050720 433.209106,311.564362 
	C432.449493,309.840668 431.742310,307.726105 431.053040,305.208374 
z"/>
<path fill="#472515" opacity="1.000000" stroke="none" 
	d="
M394.743042,237.929138 
	C394.904144,238.371033 394.733185,238.680222 394.263123,239.017334 
	C394.113007,238.628983 394.262024,238.212708 394.743042,237.929138 
z"/>
<path fill="#DC8212" opacity="1.000000" stroke="none" 
	d="
M368.132538,411.568909 
	C368.620026,413.853424 369.086304,415.940430 369.890503,417.887848 
	C375.098114,430.498413 374.272766,442.533539 366.408051,453.817169 
	C362.675629,459.172119 358.779083,460.937653 352.870880,460.085663 
	C353.208984,455.644135 353.551361,451.145996 354.272339,446.479980 
	C354.818756,446.541107 354.952759,446.788483 355.024536,447.457611 
	C355.419403,449.169495 355.842682,450.477997 356.265930,451.786469 
	C357.753296,451.272736 359.679352,451.166504 360.624420,450.149017 
	C362.016632,448.650146 362.709534,446.501740 363.775818,444.262390 
	C364.479553,441.413452 365.107758,438.932037 365.882996,435.869965 
	C362.517120,436.121307 359.789581,436.324951 357.062042,436.528625 
	C358.484192,436.021362 359.938202,435.011536 361.322601,435.099304 
	C365.811584,435.383942 367.357880,433.107727 366.954956,429.133057 
	C366.436066,424.014465 365.658356,418.922119 364.932678,413.105774 
	C364.256927,411.922974 363.640656,411.452850 363.024384,410.982727 
	C363.018951,410.542786 363.013489,410.102875 363.016418,409.333038 
	C366.803436,406.875641 367.466827,407.167145 368.132538,411.568909 
z"/>
<path fill="#E0404B" opacity="1.000000" stroke="none" 
	d="
M315.291321,407.443420 
	C316.015045,406.453461 317.051086,405.976532 317.568481,405.167847 
	C319.515564,402.124298 320.835693,398.550934 323.230896,395.949707 
	C328.163879,390.592346 335.090485,390.547943 339.679291,396.226807 
	C342.325592,399.501740 343.361572,404.077850 345.130310,408.476532 
	C342.459900,413.677582 339.606293,409.465454 336.346863,408.672729 
	C332.264923,403.471527 328.769165,403.705780 324.971466,409.029053 
	C321.769470,408.620728 318.567505,408.212402 315.291321,407.443420 
z"/>
<path fill="#DC8212" opacity="1.000000" stroke="none" 
	d="
M346.916016,428.666748 
	C342.923462,428.953735 343.842957,431.192047 344.786133,433.600006 
	C348.235626,442.406769 347.170471,450.965454 342.427979,458.877502 
	C340.639618,461.861115 337.817169,464.633453 334.815277,466.389709 
	C329.730042,469.364899 327.067474,467.680664 326.332275,461.511230 
	C333.191833,460.942810 335.552368,456.001129 338.098572,450.746826 
	C339.210358,447.867249 340.141388,445.305725 341.323151,442.054413 
	C337.599426,442.232971 334.823456,442.366089 332.047455,442.499176 
	C331.456512,442.229980 330.865601,441.960785 330.274658,441.691589 
	C330.265015,441.463348 330.255371,441.235138 330.245728,441.006897 
	C332.539307,441.006897 334.864349,440.764343 337.120056,441.056580 
	C342.052765,441.695648 343.666931,439.499237 343.014618,434.891144 
	C342.808350,433.434021 342.850769,431.938812 342.822479,430.460205 
	C342.793213,428.931335 342.816376,427.401459 342.816589,425.872040 
	C344.163666,426.696899 345.510773,427.521729 346.916016,428.666748 
z"/>
<path fill="#631108" opacity="1.000000" stroke="none" 
	d="
M331.601624,442.589203 
	C334.823456,442.366089 337.599426,442.232971 341.323151,442.054413 
	C340.141388,445.305725 339.210358,447.867249 337.658386,450.729736 
	C332.997620,451.411285 328.957825,451.791901 324.917999,452.172516 
	C324.566528,449.409149 324.215027,446.645752 323.867981,443.441772 
	C326.300232,442.893860 328.728027,442.786560 331.601624,442.589203 
z"/>
<path fill="#631108" opacity="1.000000" stroke="none" 
	d="
M356.678284,436.624023 
	C359.789581,436.324951 362.517120,436.121307 365.882996,435.869965 
	C365.107758,438.932037 364.479553,441.413452 363.432861,444.414490 
	C360.360565,445.640839 357.706757,446.347504 355.052917,447.054199 
	C354.952759,446.788483 354.818756,446.541107 354.471619,446.206970 
	C353.829987,443.628357 353.367676,441.154785 352.808228,438.241028 
	C353.905518,437.440399 355.100006,437.079956 356.678284,436.624023 
z"/>
<path fill="#F9A043" opacity="1.000000" stroke="none" 
	d="
M325.297485,409.265991 
	C328.769165,403.705780 332.264923,403.471527 335.970825,408.649109 
	C332.590790,409.167114 329.107147,409.335022 325.297485,409.265991 
z"/>
<path fill="#E8740B" opacity="1.000000" stroke="none" 
	d="
M363.074646,411.292542 
	C363.640656,411.452850 364.256927,411.922974 364.919708,412.704132 
	C364.352448,412.544220 363.738708,412.073303 363.074646,411.292542 
z"/>
<path fill="#1299F4" opacity="1.000000" stroke="none" 
	d="
M411.854614,392.294891 
	C400.747650,399.700073 390.340912,397.414062 383.710876,392.682709 
	C379.437622,389.633240 376.974030,384.047821 373.404663,379.510468 
	C372.400696,374.439148 371.096558,369.455811 371.100555,364.473541 
	C371.110291,352.421082 379.842987,345.883453 388.301941,339.494598 
	C389.654175,338.473236 392.187714,339.015961 394.625793,339.327271 
	C396.089630,343.366943 396.228882,347.581024 398.311676,350.313782 
	C401.828033,354.927460 406.575348,358.602936 410.468994,362.782654 
	C407.737183,364.761627 404.776794,366.216644 403.046722,368.574432 
	C396.731537,377.181091 400.584564,387.172424 411.854614,392.294891 
z"/>
<path fill="#402A2B" opacity="1.000000" stroke="none" 
	d="
M412.058411,392.424438 
	C400.584564,387.172424 396.731537,377.181091 403.046722,368.574432 
	C404.776794,366.216644 407.737183,364.761627 410.919861,362.850586 
	C415.413361,363.510742 419.120056,364.212677 422.924438,365.226227 
	C423.645935,366.119080 424.269745,366.700287 424.893555,367.281494 
	C425.435608,368.372009 425.977692,369.462463 426.741272,370.766357 
	C428.932343,382.167358 427.249542,386.255188 418.406433,391.071930 
	C416.136963,391.641815 414.199585,392.097900 412.058411,392.424438 
z"/>
<path fill="#F0F5F2" opacity="1.000000" stroke="none" 
	d="
M422.826721,364.914612 
	C419.120056,364.212677 415.413361,363.510742 411.255859,362.740875 
	C406.575348,358.602936 401.828033,354.927460 398.311676,350.313782 
	C396.228882,347.581024 396.089630,343.366943 395.055420,339.390686 
	C403.119720,334.871277 410.087708,338.147827 416.879944,342.338684 
	C417.987640,343.022064 418.885742,344.045227 420.305450,345.338623 
	C422.120911,347.957336 423.511566,350.148804 424.902252,352.340302 
	C424.902252,352.340302 424.844604,352.679016 424.911011,353.260406 
	C424.260529,357.532745 423.543640,361.223663 422.826721,364.914612 
z"/>
<path fill="#D37923" opacity="1.000000" stroke="none" 
	d="
M422.924438,365.226227 
	C423.543640,361.223663 424.260529,357.532745 425.008972,353.401550 
	C427.812561,355.876099 427.841553,361.840698 424.999908,366.889679 
	C424.269745,366.700287 423.645935,366.119080 422.924438,365.226227 
z"/>
<path fill="#D37923" opacity="1.000000" stroke="none" 
	d="
M424.935181,351.943726 
	C423.511566,350.148804 422.120911,347.957336 420.616364,345.416626 
	C421.643219,345.067383 422.783936,345.067383 424.141052,345.067383 
	C424.440735,347.415253 424.704437,349.481201 424.935181,351.943726 
z"/>
<path fill="#1399F4" opacity="1.000000" stroke="none" 
	d="
M265.644745,339.023254 
	C266.750122,339.017517 267.502930,339.127258 268.529114,339.621033 
	C269.324493,343.045563 268.916046,346.777832 270.557709,348.985870 
	C274.239319,353.937622 278.939941,358.131744 283.225647,362.634338 
	C281.787170,363.703369 280.385010,364.825836 278.903870,365.832062 
	C272.999634,369.842957 272.970123,376.142456 274.136566,381.763702 
	C275.125549,386.529602 279.055328,390.150848 284.361267,391.352356 
	C284.987488,391.494171 285.559723,391.874207 286.535217,392.190125 
	C272.821259,402.208832 255.869766,395.019348 247.481705,380.919312 
	C246.453110,373.931763 245.788376,366.992645 245.086487,359.596130 
	C246.530136,356.467407 247.715881,353.570374 249.551712,351.170654 
	C253.677689,345.777191 258.975891,341.750641 265.644745,339.023254 
z"/>
<path fill="#F0F5F1" opacity="1.000000" stroke="none" 
	d="
M283.531189,362.843811 
	C278.939941,358.131744 274.239319,353.937622 270.557709,348.985870 
	C268.916046,346.777832 269.324493,343.045563 268.906281,339.680878 
	C274.916992,336.094543 284.077148,337.715363 290.514282,343.161743 
	C296.928131,348.588379 298.854004,355.970367 295.843140,364.525085 
	C291.747620,364.301636 287.792206,363.677460 283.531189,362.843811 
z"/>
<path fill="#CB3D0B" opacity="1.000000" stroke="none" 
	d="
M324.910431,452.407288 
	C328.957825,451.791901 332.997620,451.411285 337.477600,451.047791 
	C335.552368,456.001129 333.191833,460.942810 326.349670,461.119568 
	C325.660950,458.622986 325.270447,456.266754 324.839294,453.505341 
	C324.798645,453.100159 324.902863,452.642090 324.910431,452.407288 
z"/>
<path fill="#E3A111" opacity="1.000000" stroke="none" 
	d="
M322.272278,481.222015 
	C324.052765,482.457092 326.210510,483.599823 326.654572,485.213989 
	C327.052979,486.662292 326.017212,489.178223 324.773499,490.198120 
	C323.726532,491.056671 320.845734,491.130005 319.921631,490.290588 
	C318.943726,489.402252 318.879547,486.927887 319.232422,485.326050 
	C319.553162,483.870148 320.969971,482.655731 322.272278,481.222015 
z"/>
<path fill="#CE4713" opacity="1.000000" stroke="none" 
	d="
M355.024536,447.457611 
	C357.706757,446.347504 360.360565,445.640839 363.357361,444.782043 
	C362.709534,446.501740 362.016632,448.650146 360.624420,450.149017 
	C359.679352,451.166504 357.753296,451.272736 356.265930,451.786469 
	C355.842682,450.477997 355.419403,449.169495 355.024536,447.457611 
z"/>
</svg>